<?xml version="1.0" encoding="utf-8" standalone="no"?>
<!DOCTYPE svg PUBLIC "-//W3C//DTD SVG 1.1//EN"
  "http://www.w3.org/Graphics/SVG/1.1/DTD/svg11.dtd">
<!-- Created with matplotlib (http://matplotlib.org/) -->
<svg height="288pt" version="1.1" viewBox="0 0 432 288" width="432pt" xmlns="http://www.w3.org/2000/svg" xmlns:xlink="http://www.w3.org/1999/xlink">
 <defs>
  <style type="text/css">
*{stroke-linecap:butt;stroke-linejoin:round;}
  </style>
 </defs>
 <g id="figure_1">
  <g id="patch_1">
   <path d="M 0 288 
L 432 288 
L 432 0 
L 0 0 
z
" style="fill:#ffffff;"/>
  </g>
  <g id="axes_1">
   <g id="patch_2">
    <path d="M 54 133.396364 
L 388.8 133.396364 
L 388.8 34.56 
L 54 34.56 
z
" style="fill:#ffffff;"/>
   </g>
   <g id="matplotlib.axis_1">
    <g id="text_1">
     <!-- T -->
     <defs>
      <path d="M 44.53125 61.328125 
L 28.90625 61.328125 
L 28.90625 1.953125 
L 19.921875 1.953125 
L 19.921875 61.328125 
L 4.296875 61.328125 
L 4.296875 68.75 
L 44.53125 68.75 
z
" id="SimHei-54"/>
     </defs>
     <g transform="translate(218.9 144.271364)scale(0.1 -0.1)">
      <use xlink:href="#SimHei-54"/>
     </g>
    </g>
   </g>
   <g id="matplotlib.axis_2">
    <g id="text_2">
     <!-- Value -->
     <defs>
      <path d="M 47.65625 68.75 
L 28.125 1.171875 
L 20.3125 1.171875 
L 0.78125 68.75 
L 10.15625 68.75 
L 23.828125 17.578125 
L 24.609375 17.578125 
L 38.28125 68.75 
z
" id="SimHei-56"/>
      <path d="M 44.921875 1.953125 
L 35.546875 1.953125 
Q 34.765625 2.734375 34.375 4.09375 
Q 33.984375 5.46875 33.984375 7.421875 
Q 31.25 4.296875 27.34375 2.734375 
Q 23.4375 1.171875 19.140625 1.171875 
Q 12.890625 1.171875 8.59375 4.296875 
Q 4.296875 7.421875 4.296875 13.28125 
Q 4.296875 19.140625 8.203125 22.65625 
Q 12.109375 26.171875 20.3125 27.34375 
Q 25.78125 28.125 29.875 29.296875 
Q 33.984375 30.46875 33.984375 32.421875 
Q 33.984375 34.765625 32.21875 37.109375 
Q 30.46875 39.453125 24.609375 39.453125 
Q 19.921875 39.453125 17.765625 37.6875 
Q 15.625 35.9375 14.84375 32.8125 
L 6.25 32.8125 
Q 7.03125 39.0625 11.90625 42.765625 
Q 16.796875 46.484375 24.609375 46.484375 
Q 33.203125 46.484375 37.5 42.578125 
Q 41.796875 38.671875 41.796875 31.640625 
L 41.796875 10.15625 
Q 41.796875 7.8125 42.578125 5.859375 
Q 43.359375 3.90625 44.921875 1.953125 
z
M 33.984375 16.40625 
L 33.984375 24.21875 
Q 31.640625 23.4375 29.484375 22.84375 
Q 27.34375 22.265625 22.265625 21.484375 
Q 16.40625 20.703125 14.640625 18.75 
Q 12.890625 16.796875 12.890625 14.0625 
Q 12.890625 11.71875 14.640625 9.953125 
Q 16.40625 8.203125 19.921875 8.203125 
Q 23.4375 8.203125 27.53125 10.15625 
Q 31.640625 12.109375 33.984375 16.40625 
z
" id="SimHei-61"/>
      <path d="M 28.515625 1.953125 
L 20.703125 1.953125 
L 20.703125 68.75 
L 28.515625 68.75 
z
" id="SimHei-6c"/>
      <path d="M 43.75 1.953125 
L 35.9375 1.953125 
L 35.9375 10.15625 
Q 32.8125 5.859375 29.09375 3.515625 
Q 25.390625 1.171875 19.53125 1.171875 
Q 12.5 1.171875 8.984375 5.078125 
Q 5.46875 8.984375 5.46875 14.84375 
L 5.46875 45.703125 
L 13.28125 45.703125 
L 13.28125 17.578125 
Q 13.28125 12.890625 15.625 10.15625 
Q 17.96875 7.421875 21.875 7.421875 
Q 26.953125 7.421875 31.4375 12.6875 
Q 35.9375 17.96875 35.9375 25.78125 
L 35.9375 45.703125 
L 43.75 45.703125 
z
" id="SimHei-75"/>
      <path d="M 44.53125 16.796875 
Q 43.75 9.765625 38.28125 5.46875 
Q 32.8125 1.171875 25.390625 1.171875 
Q 16.015625 1.171875 9.953125 7.21875 
Q 3.90625 13.28125 3.90625 23.828125 
Q 3.90625 34.375 9.953125 40.421875 
Q 16.015625 46.484375 25.390625 46.484375 
Q 33.59375 46.484375 38.859375 41.203125 
Q 44.140625 35.9375 44.140625 23.828125 
L 12.5 23.828125 
Q 12.5 15.234375 16.203125 11.71875 
Q 19.921875 8.203125 25.390625 8.203125 
Q 29.6875 8.203125 32.421875 10.34375 
Q 35.15625 12.5 35.9375 16.796875 
z
M 35.15625 30.078125 
Q 34.375 35.546875 31.640625 37.6875 
Q 28.90625 39.84375 24.609375 39.84375 
Q 20.703125 39.84375 17.578125 37.6875 
Q 14.453125 35.546875 12.890625 30.078125 
z
" id="SimHei-65"/>
     </defs>
     <g transform="translate(48.75 96.478182)rotate(-90)scale(0.1 -0.1)">
      <use xlink:href="#SimHei-56"/>
      <use x="50" xlink:href="#SimHei-61"/>
      <use x="100" xlink:href="#SimHei-6c"/>
      <use x="150" xlink:href="#SimHei-75"/>
      <use x="200" xlink:href="#SimHei-65"/>
     </g>
    </g>
   </g>
   <g id="line2d_1">
    <path clip-path="url(#pdc30a2e29b)" d="M 69.218182 52.16885 
L 74.049351 62.970499 
L 78.880519 78.208539 
L 83.711688 84.188024 
L 88.542857 79.944519 
L 93.374026 77.436993 
L 98.205195 72.807715 
L 103.036364 67.599777 
L 107.867532 64.513592 
L 112.698701 65.285138 
L 117.52987 59.305654 
L 122.361039 56.412355 
L 127.192208 67.599777 
L 132.023377 76.665447 
L 136.854545 96.918538 
L 141.685714 114.471218 
L 146.516883 120.450702 
L 151.348052 121.993795 
L 156.179221 123.344001 
L 161.01039 121.608022 
L 165.841558 109.649053 
L 170.672727 90.939054 
L 175.503896 66.056684 
L 180.335065 53.133283 
L 185.166234 55.447922 
L 189.997403 65.863798 
L 194.828571 73.193488 
L 199.65974 82.066271 
L 204.490909 90.167508 
L 209.322078 92.675034 
L 214.153247 94.411013 
L 218.984416 100.583384 
L 223.815584 91.131941 
L 228.646753 77.822766 
L 233.477922 65.285138 
L 238.309091 47.539572 
L 243.14026 45.032046 
L 247.971429 51.975963 
L 252.802597 65.285138 
L 257.633766 76.279674 
L 262.464935 80.716065 
L 267.296104 79.365859 
L 272.127273 71.264622 
L 276.958442 64.127818 
L 281.78961 60.65586 
L 286.620779 50.047098 
L 291.451948 40.788541 
L 296.283117 39.052562 
L 301.114286 53.904829 
L 305.945455 76.47256 
L 310.776623 98.075858 
L 315.607792 113.892558 
L 320.438961 120.836475 
L 325.27013 122.958228 
L 330.101299 121.222249 
L 334.932468 118.521836 
L 339.763636 105.598435 
L 344.594805 81.873385 
L 349.425974 65.670911 
L 354.257143 50.625757 
L 359.088312 56.219468 
L 363.919481 65.092251 
L 368.750649 82.259158 
L 373.581818 99.233178 
" style="fill:none;stroke:#1f77b4;stroke-linecap:square;stroke-width:1.5;"/>
   </g>
   <g id="line2d_2">
    <path clip-path="url(#pdc30a2e29b)" d="M 69.218182 76.582126 
L 74.049351 72.211357 
L 78.880519 73.714928 
L 83.711688 75.943596 
L 88.542857 75.123181 
L 93.374026 74.67687 
L 98.205195 73.384352 
L 103.036364 71.525874 
L 107.867532 68.255991 
L 112.698701 63.822333 
L 117.52987 58.034294 
L 122.361039 56.455146 
L 127.192208 63.826118 
L 132.023377 77.915403 
L 136.854545 97.142824 
L 141.685714 113.693376 
L 146.516883 122.686701 
L 151.348052 125.013838 
L 156.179221 123.397371 
L 161.01039 117.597165 
L 165.841558 105.620207 
L 170.672727 88.801238 
L 175.503896 70.044584 
L 180.335065 57.520399 
L 185.166234 54.723138 
L 189.997403 61.323616 
L 194.828571 71.225423 
L 199.65974 82.127581 
L 204.490909 90.690547 
L 209.322078 95.897004 
L 214.153247 98.106572 
L 218.984416 97.050729 
L 223.815584 89.061082 
L 228.646753 75.712599 
L 233.477922 61.896687 
L 238.309091 50.336886 
L 243.14026 48.514392 
L 247.971429 54.456836 
L 252.802597 65.146346 
L 257.633766 74.002812 
L 262.464935 78.06132 
L 267.296104 77.335494 
L 272.127273 72.803177 
L 276.958442 66.856823 
L 281.78961 59.296153 
L 286.620779 49.964559 
L 291.451948 42.425418 
L 296.283117 41.909471 
L 301.114286 52.457474 
L 305.945455 71.697754 
L 310.776623 93.736082 
L 315.607792 112.648001 
L 320.438961 124.650601 
L 325.27013 128.903802 
L 330.101299 125.476399 
L 334.932468 115.151115 
L 339.763636 98.436102 
L 344.594805 78.688154 
L 349.425974 63.602769 
L 354.257143 55.638895 
L 359.088312 58.821967 
L 363.919481 68.637521 
L 368.750649 82.884184 
L 373.581818 96.75107 
" style="fill:none;stroke:#ff7f0e;stroke-linecap:square;stroke-width:1.5;"/>
   </g>
   <g id="patch_3">
    <path d="M 54 133.396364 
L 54 34.56 
" style="fill:none;stroke:#000000;stroke-linecap:square;stroke-linejoin:miter;stroke-width:0.8;"/>
   </g>
   <g id="patch_4">
    <path d="M 388.8 133.396364 
L 388.8 34.56 
" style="fill:none;stroke:#000000;stroke-linecap:square;stroke-linejoin:miter;stroke-width:0.8;"/>
   </g>
   <g id="patch_5">
    <path d="M 54 133.396364 
L 388.8 133.396364 
" style="fill:none;stroke:#000000;stroke-linecap:square;stroke-linejoin:miter;stroke-width:0.8;"/>
   </g>
   <g id="patch_6">
    <path d="M 54 34.56 
L 388.8 34.56 
" style="fill:none;stroke:#000000;stroke-linecap:square;stroke-linejoin:miter;stroke-width:0.8;"/>
   </g>
   <g id="text_3">
    <!-- 时域重构数据 -->
    <defs>
     <path d="M 39.453125 71.484375 
Q 39.0625 57.421875 39.0625 37.5 
Q 39.0625 17.578125 39.453125 6.25 
L 31.25 6.25 
L 31.25 13.671875 
L 15.625 13.671875 
L 15.625 0.78125 
L 7.421875 0.78125 
Q 7.8125 18.75 7.8125 36.71875 
Q 7.8125 55.078125 7.421875 71.484375 
L 39.453125 71.484375 
z
M 76.171875 59.765625 
Q 76.171875 71.484375 75.78125 81.640625 
L 84.375 81.640625 
Q 83.984375 71.484375 83.984375 59.765625 
Q 89.84375 59.765625 96.484375 60.15625 
L 96.484375 52.734375 
Q 89.84375 53.125 83.984375 53.125 
L 83.984375 0.78125 
Q 83.984375 -5.078125 79.296875 -6.640625 
Q 74.609375 -8.203125 67.1875 -8.984375 
Q 67.1875 -4.296875 62.890625 0 
Q 70.3125 -0.78125 73.234375 -0.390625 
Q 76.171875 0 76.171875 4.6875 
L 76.171875 53.125 
Q 56.640625 53.125 43.359375 52.734375 
L 43.359375 60.15625 
Q 55.859375 59.765625 76.171875 59.765625 
z
M 31.25 20.3125 
L 31.25 39.84375 
L 15.625 39.84375 
L 15.625 20.3125 
z
M 31.25 46.484375 
L 31.25 64.84375 
L 15.625 64.84375 
L 15.625 46.484375 
z
M 55.46875 42.578125 
Q 60.546875 34.375 65.234375 25 
Q 61.328125 23.828125 57.03125 21.484375 
Q 53.90625 30.859375 48.046875 39.0625 
Q 51.5625 40.625 55.46875 42.578125 
z
" id="SimHei-65f6"/>
     <path d="M 71.09375 79.6875 
Q 69.921875 74.609375 70.3125 64.84375 
L 78.515625 64.84375 
Q 85.15625 64.84375 92.96875 65.234375 
L 92.96875 57.8125 
Q 85.546875 58.203125 78.515625 58.203125 
L 70.703125 58.203125 
Q 71.09375 47.65625 71.875 38.46875 
Q 72.65625 29.296875 74.609375 19.921875 
Q 77.734375 28.90625 78.90625 35.546875 
Q 80.078125 42.1875 80.859375 50 
Q 84.765625 48.046875 89.84375 46.875 
Q 88.671875 44.921875 86.515625 36.515625 
Q 84.375 28.125 82.609375 22.65625 
Q 80.859375 17.1875 78.515625 10.9375 
Q 80.078125 7.03125 83 3.703125 
Q 85.9375 0.390625 87.296875 3.3125 
Q 88.671875 6.25 89.84375 10.9375 
Q 92.1875 8.203125 96.875 6.25 
Q 93.75 -1.5625 90.625 -5.265625 
Q 87.5 -8.984375 82.03125 -5.078125 
Q 76.5625 -1.171875 73.828125 4.6875 
Q 71.484375 1.171875 68.15625 -2.734375 
Q 64.84375 -6.640625 60.546875 -10.15625 
Q 58.59375 -8.203125 53.125 -5.078125 
Q 58.59375 -2.34375 63.078125 2.53125 
Q 67.578125 7.421875 69.921875 12.109375 
Q 67.96875 18.359375 66.984375 23.625 
Q 66.015625 28.90625 65.03125 38.28125 
Q 64.0625 47.65625 63.671875 58.203125 
L 49.21875 58.203125 
Q 39.453125 58.203125 30.859375 57.8125 
L 30.859375 65.234375 
Q 39.453125 64.84375 49.21875 64.84375 
L 63.28125 64.84375 
Q 62.890625 71.875 61.71875 80.859375 
Q 66.40625 80.078125 71.09375 79.6875 
z
M 15.234375 66.40625 
Q 15.234375 75 14.84375 79.6875 
L 22.65625 79.6875 
Q 22.265625 74.21875 22.265625 66.40625 
L 22.265625 51.953125 
Q 25.390625 51.953125 31.25 52.34375 
L 31.25 45.3125 
Q 25.390625 45.703125 22.265625 45.703125 
L 22.265625 15.625 
Q 24.21875 16.796875 31.25 19.921875 
Q 30.859375 16.796875 31.25 12.109375 
Q 26.171875 9.765625 18.75 6.640625 
Q 11.328125 3.515625 7.8125 0.78125 
Q 5.859375 5.078125 3.90625 8.984375 
Q 7.421875 9.765625 10.34375 10.734375 
Q 13.28125 11.71875 15.234375 12.890625 
L 15.234375 45.703125 
Q 9.765625 45.703125 4.6875 45.3125 
L 4.6875 52.34375 
Q 9.375 51.953125 15.234375 51.953125 
z
M 59.375 27.34375 
Q 59.375 22.265625 59.765625 17.96875 
L 34.765625 17.96875 
Q 35.15625 21.484375 35.15625 24.609375 
L 35.15625 39.453125 
Q 35.15625 44.140625 34.765625 48.046875 
L 59.765625 48.046875 
Q 59.375 44.921875 59.375 41.796875 
z
M 29.6875 3.515625 
Q 35.9375 4.6875 44.53125 7.21875 
Q 53.125 9.765625 59.765625 12.5 
Q 59.375 9.375 59.375 5.46875 
Q 54.6875 3.90625 47.0625 1.171875 
Q 39.453125 -1.5625 33.203125 -4.296875 
Q 31.640625 -0.390625 29.6875 3.515625 
z
M 52.34375 23.828125 
L 52.34375 42.1875 
L 42.578125 42.1875 
L 42.578125 23.828125 
z
M 82.8125 67.578125 
Q 80.46875 72.265625 76.5625 76.953125 
Q 78.90625 78.90625 82.03125 80.46875 
Q 85.15625 76.5625 89.0625 71.484375 
Q 85.546875 69.921875 82.8125 67.578125 
z
" id="SimHei-57df"/>
     <path d="M 82.8125 71.484375 
Q 60.9375 69.53125 53.515625 68.75 
L 53.515625 60.546875 
L 80.46875 60.546875 
Q 85.9375 60.546875 93.75 60.9375 
L 93.75 53.90625 
Q 85.9375 54.296875 80.46875 54.296875 
L 53.515625 54.296875 
L 53.515625 47.65625 
L 80.46875 47.65625 
Q 80.078125 41.796875 80.078125 33.203125 
Q 80.078125 24.609375 80.46875 18.359375 
L 53.515625 18.359375 
L 53.515625 11.71875 
L 71.09375 11.71875 
Q 78.125 11.71875 85.9375 12.109375 
L 85.9375 5.859375 
Q 78.515625 6.25 71.484375 6.25 
L 53.515625 6.25 
L 53.515625 -0.78125 
L 78.90625 -0.78125 
Q 85.546875 -0.78125 93.359375 -0.390625 
L 93.359375 -7.03125 
Q 85.546875 -6.640625 79.296875 -6.640625 
L 23.046875 -6.640625 
Q 15.234375 -6.640625 7.03125 -7.03125 
L 7.03125 -0.390625 
Q 15.234375 -0.78125 22.65625 -0.78125 
L 45.703125 -0.78125 
L 45.703125 6.25 
L 32.03125 6.25 
Q 22.65625 6.25 14.84375 5.859375 
L 14.84375 12.109375 
Q 25 11.71875 32.421875 11.71875 
L 45.703125 11.71875 
L 45.703125 18.359375 
L 19.53125 18.359375 
Q 19.921875 28.125 19.921875 33.203125 
Q 19.921875 38.28125 19.53125 47.65625 
L 45.703125 47.65625 
L 45.703125 54.296875 
L 19.140625 54.296875 
Q 13.671875 54.296875 6.25 53.90625 
L 6.25 60.9375 
Q 13.671875 60.546875 19.140625 60.546875 
L 45.703125 60.546875 
L 45.703125 68.359375 
Q 37.890625 67.96875 16.796875 66.40625 
Q 15.625 69.921875 13.671875 73.046875 
Q 35.546875 73.4375 52.53125 75.1875 
Q 69.53125 76.953125 76.953125 79.296875 
Q 78.515625 75.390625 82.8125 71.484375 
z
M 72.65625 35.9375 
L 72.65625 41.40625 
L 53.515625 41.40625 
L 53.515625 35.9375 
z
M 45.703125 35.9375 
L 45.703125 41.40625 
L 27.34375 41.40625 
L 27.34375 35.9375 
z
M 72.265625 24.609375 
L 72.265625 29.6875 
L 53.515625 29.6875 
L 53.515625 24.609375 
z
M 45.703125 24.609375 
L 45.703125 29.6875 
L 27.34375 29.6875 
L 27.34375 24.609375 
z
" id="SimHei-91cd"/>
     <path d="M 35.15625 25.390625 
Q 32.03125 32.8125 28.515625 38.671875 
L 28.515625 8.984375 
Q 28.515625 0.78125 28.90625 -7.8125 
L 20.703125 -7.8125 
Q 21.09375 1.171875 21.09375 8.984375 
L 21.09375 37.109375 
Q 16.796875 27.34375 8.203125 15.625 
Q 5.859375 18.75 2.734375 21.875 
Q 9.765625 29.6875 14.25 39.25 
Q 18.75 48.828125 19.53125 54.6875 
Q 13.28125 54.6875 7.421875 54.296875 
L 7.421875 61.328125 
Q 13.28125 60.9375 21.09375 60.9375 
L 21.09375 69.921875 
Q 21.09375 75.78125 20.703125 80.46875 
L 28.90625 80.46875 
Q 28.515625 76.5625 28.515625 69.921875 
L 28.515625 60.9375 
Q 33.59375 60.9375 39.453125 61.328125 
L 39.453125 54.296875 
Q 33.59375 54.6875 28.515625 54.6875 
L 28.515625 39.453125 
Q 31.640625 41.015625 34.765625 42.96875 
Q 38.671875 35.9375 42.1875 29.296875 
Q 38.671875 27.734375 35.15625 25.390625 
z
M 62.5 78.90625 
Q 60.546875 76.171875 58.78125 72.265625 
Q 57.03125 68.359375 55.46875 64.453125 
L 94.140625 64.453125 
Q 93.75 58.59375 93.359375 50 
Q 93.359375 26.171875 91.796875 5.46875 
Q 90.234375 -3.125 85.34375 -5.265625 
Q 80.46875 -7.421875 70.3125 -8.203125 
Q 69.53125 -3.90625 67.1875 0.78125 
Q 75.390625 0.390625 79.6875 1.171875 
Q 83.984375 1.953125 84.765625 11.328125 
Q 86.328125 33.203125 85.9375 57.8125 
L 52.734375 57.8125 
Q 49.21875 50 44.921875 42.96875 
Q 41.796875 45.3125 38.28125 46.484375 
Q 44.140625 55.078125 48.046875 64.84375 
Q 51.953125 74.609375 53.515625 82.03125 
Q 58.203125 79.6875 62.5 78.90625 
z
M 69.53125 16.40625 
Q 65.234375 16.015625 57.21875 14.84375 
Q 49.21875 13.671875 43.75 11.328125 
Q 42.1875 16.015625 40.234375 20.3125 
Q 42.578125 21.09375 45.703125 26.171875 
Q 48.828125 31.25 50.78125 36.515625 
Q 52.734375 41.796875 54.6875 49.21875 
Q 59.375 47.265625 63.671875 44.921875 
Q 61.328125 42.578125 56.828125 33.78125 
Q 52.34375 25 49.609375 21.09375 
Q 58.203125 21.484375 68.359375 22.265625 
Q 66.796875 27.734375 64.453125 33.984375 
L 72.265625 36.328125 
Q 74.609375 29.6875 76.5625 23.828125 
Q 78.515625 17.96875 79.296875 12.5 
Q 75 11.71875 71.09375 10.15625 
Q 70.3125 13.671875 69.53125 16.40625 
z
" id="SimHei-6784"/>
     <path d="M 70.703125 76.953125 
Q 69.921875 75 68.75 71.671875 
Q 67.578125 68.359375 65.234375 59.765625 
L 83.203125 59.765625 
Q 87.109375 59.765625 92.578125 60.15625 
L 92.578125 53.125 
Q 88.28125 53.515625 85.9375 53.515625 
Q 85.9375 47.265625 83.78125 33.78125 
Q 81.640625 20.3125 76.171875 10.546875 
Q 80.078125 5.859375 84.953125 2.140625 
Q 89.84375 -1.5625 94.140625 -3.125 
Q 89.453125 -6.640625 87.890625 -9.765625 
Q 83.203125 -7.03125 79.296875 -3.515625 
Q 75.390625 0 71.484375 5.078125 
Q 67.1875 0.390625 62.296875 -2.921875 
Q 57.421875 -6.25 50 -10.15625 
Q 48.046875 -6.640625 44.53125 -4.6875 
Q 50.390625 -2.34375 57.03125 1.953125 
Q 63.671875 6.25 67.1875 10.546875 
Q 64.453125 16.015625 61.90625 22.265625 
Q 59.375 28.515625 57.421875 38.671875 
Q 56.25 35.546875 53.515625 30.46875 
Q 50.78125 32.03125 46.875 33.59375 
Q 53.125 44.53125 57.03125 57.421875 
Q 60.9375 70.3125 62.109375 79.6875 
Q 66.796875 77.734375 70.703125 76.953125 
z
M 32.8125 35.15625 
Q 31.25 33.59375 29.296875 30.078125 
L 50.78125 30.078125 
Q 48.4375 20.3125 42.578125 10.546875 
Q 48.828125 8.203125 52.34375 6.25 
Q 50.390625 3.515625 48.828125 0.390625 
Q 45.3125 2.734375 38.28125 5.078125 
Q 30.46875 -3.515625 11.328125 -10.15625 
Q 9.375 -5.859375 6.25 -4.296875 
Q 24.609375 0 31.25 7.421875 
Q 20.3125 10.15625 13.28125 12.109375 
Q 15.625 15.625 19.53125 23.828125 
Q 15.625 23.828125 6.640625 23.4375 
L 6.640625 30.46875 
Q 14.0625 30.078125 21.875 30.078125 
Q 23.4375 33.59375 24.21875 37.890625 
Q 28.515625 36.328125 32.8125 35.15625 
z
M 27.734375 61.71875 
Q 27.734375 71.09375 27.34375 79.6875 
L 35.15625 79.6875 
Q 34.765625 71.484375 34.765625 61.71875 
Q 48.046875 61.71875 53.515625 62.109375 
L 53.515625 55.078125 
Q 48.046875 55.46875 34.765625 55.46875 
Q 34.765625 44.140625 35.15625 37.890625 
L 27.34375 37.890625 
Q 27.734375 43.359375 27.734375 51.5625 
Q 25.78125 48.4375 20.3125 43.546875 
Q 14.84375 38.671875 10.15625 35.9375 
Q 8.203125 39.453125 4.296875 41.015625 
Q 7.8125 42.1875 13.671875 46.484375 
Q 19.53125 50.78125 22.65625 55.46875 
Q 14.84375 55.46875 7.8125 55.078125 
L 7.8125 62.109375 
Q 14.453125 61.71875 27.734375 61.71875 
z
M 62.109375 49.609375 
Q 65.625 26.5625 71.875 17.578125 
Q 75.78125 26.5625 77.140625 35.734375 
Q 78.515625 44.921875 78.90625 53.515625 
L 63.671875 53.515625 
L 62.109375 49.609375 
z
M 22.65625 15.625 
Q 27.34375 14.453125 35.546875 12.5 
Q 38.671875 16.40625 41.40625 23.828125 
L 26.953125 23.828125 
Q 25 19.921875 22.65625 15.625 
z
M 51.953125 75.390625 
Q 50 72.265625 48.828125 69.53125 
Q 47.65625 66.796875 45.703125 62.890625 
Q 42.578125 64.453125 39.453125 65.234375 
Q 42.578125 70.3125 45.3125 78.125 
Q 49.21875 76.171875 51.953125 75.390625 
z
M 40.234375 52.734375 
Q 45.3125 47.65625 50 42.578125 
Q 47.65625 40.625 44.921875 37.890625 
Q 39.453125 44.53125 35.9375 48.4375 
Q 38.28125 50.390625 40.234375 52.734375 
z
M 14.453125 78.125 
Q 19.921875 72.65625 23.4375 67.1875 
L 17.578125 63.671875 
Q 14.84375 69.140625 9.375 73.828125 
Q 12.890625 76.171875 14.453125 78.125 
z
" id="SimHei-6570"/>
     <path d="M 89.84375 74.609375 
Q 89.453125 71.09375 89.453125 66.015625 
L 89.453125 60.9375 
Q 89.453125 53.90625 89.84375 50.78125 
L 48.4375 50.78125 
L 48.4375 39.0625 
L 66.40625 39.0625 
Q 66.40625 42.578125 66.015625 49.609375 
L 73.4375 49.609375 
Q 73.046875 43.359375 73.046875 39.0625 
L 83.59375 39.0625 
Q 90.625 39.0625 95.3125 39.453125 
L 95.3125 32.421875 
Q 90.625 32.8125 83.984375 32.8125 
L 73.046875 32.8125 
L 73.046875 22.265625 
L 90.234375 22.265625 
Q 89.84375 14.84375 89.84375 12.5 
L 89.84375 2.734375 
Q 89.84375 -3.515625 90.234375 -8.984375 
L 83.203125 -8.984375 
L 83.203125 -3.515625 
L 57.421875 -3.515625 
L 57.421875 -9.375 
L 50.390625 -9.375 
Q 50.78125 -5.078125 50.78125 1.5625 
L 50.78125 12.890625 
Q 50.78125 16.796875 50.390625 22.265625 
L 66.40625 22.265625 
L 66.40625 32.8125 
L 48.046875 32.8125 
Q 47.65625 21.484375 45.109375 11.515625 
Q 42.578125 1.5625 37.890625 -7.421875 
Q 34.375 -5.078125 30.46875 -3.90625 
Q 35.15625 2.34375 37.296875 9.375 
Q 39.453125 16.40625 40.625 24.40625 
Q 41.796875 32.421875 41.796875 41.015625 
L 41.796875 55.859375 
Q 41.796875 62.109375 41.40625 74.609375 
L 89.84375 74.609375 
z
M 19.921875 69.140625 
Q 19.921875 74.609375 19.53125 79.296875 
L 27.34375 79.296875 
Q 26.953125 75 26.953125 69.140625 
L 26.953125 58.984375 
Q 30.859375 58.984375 39.0625 59.375 
L 39.0625 52.734375 
Q 30.859375 53.125 26.953125 53.125 
L 26.953125 38.28125 
Q 32.03125 41.015625 37.5 44.53125 
Q 37.890625 41.40625 39.453125 38.671875 
Q 32.03125 34.375 26.953125 31.25 
L 26.953125 2.734375 
Q 26.953125 -4.6875 23.234375 -6.25 
Q 19.53125 -7.8125 12.109375 -8.984375 
Q 11.328125 -5.078125 9.375 -0.78125 
Q 16.015625 -0.78125 17.96875 -0.1875 
Q 19.921875 0.390625 19.921875 5.078125 
L 19.921875 28.125 
Q 14.0625 25 8.203125 20.703125 
Q 7.03125 23.828125 4.296875 28.125 
Q 12.109375 30.859375 19.921875 35.15625 
L 19.921875 53.125 
Q 12.5 53.125 5.46875 52.734375 
L 5.46875 59.375 
Q 12.5 58.984375 19.921875 58.984375 
z
M 82.8125 56.640625 
L 82.8125 68.75 
L 48.4375 68.75 
L 48.4375 56.640625 
z
M 83.203125 2.34375 
L 83.203125 16.796875 
L 57.421875 16.796875 
L 57.421875 2.34375 
z
" id="SimHei-636e"/>
    </defs>
    <g transform="translate(185.4 28.56)scale(0.12 -0.12)">
     <use xlink:href="#SimHei-65f6"/>
     <use x="100" xlink:href="#SimHei-57df"/>
     <use x="200" xlink:href="#SimHei-91cd"/>
     <use x="300" xlink:href="#SimHei-6784"/>
     <use x="400" xlink:href="#SimHei-6570"/>
     <use x="500" xlink:href="#SimHei-636e"/>
    </g>
   </g>
   <g id="legend_1">
    <g id="patch_7">
     <path d="M 160.4 128.396364 
L 282.4 128.396364 
Q 284.4 128.396364 284.4 126.396364 
L 284.4 100.896364 
Q 284.4 98.896364 282.4 98.896364 
L 160.4 98.896364 
Q 158.4 98.896364 158.4 100.896364 
L 158.4 126.396364 
Q 158.4 128.396364 160.4 128.396364 
z
" style="fill:#ffffff;opacity:0.8;stroke:#cccccc;stroke-linejoin:miter;"/>
    </g>
    <g id="line2d_3">
     <path d="M 162.4 106.396364 
L 182.4 106.396364 
" style="fill:none;stroke:#1f77b4;stroke-linecap:square;stroke-width:1.5;"/>
    </g>
    <g id="line2d_4"/>
    <g id="text_4">
     <!-- Raw Input Data -->
     <defs>
      <path d="M 46.875 1.953125 
L 37.5 1.953125 
L 23.4375 30.859375 
L 13.28125 30.859375 
L 13.28125 1.953125 
L 4.296875 1.953125 
L 4.296875 68.75 
L 23.828125 68.75 
Q 33.203125 68.75 39.0625 64.25 
Q 44.921875 59.765625 44.921875 49.609375 
Q 44.921875 41.796875 41.015625 37.5 
Q 37.109375 33.203125 32.03125 32.03125 
z
M 35.9375 49.609375 
Q 35.9375 55.078125 32.609375 58.203125 
Q 29.296875 61.328125 21.875 61.328125 
L 13.28125 61.328125 
L 13.28125 38.28125 
L 24.21875 38.28125 
Q 28.90625 38.28125 32.421875 40.8125 
Q 35.9375 43.359375 35.9375 49.609375 
z
" id="SimHei-52"/>
      <path d="M 48.046875 45.703125 
L 38.28125 1.171875 
L 30.859375 1.171875 
L 24.609375 35.15625 
L 23.828125 35.15625 
L 17.578125 1.171875 
L 10.15625 1.171875 
L 0.390625 45.703125 
L 8.59375 45.703125 
L 13.671875 16.40625 
L 14.453125 16.40625 
L 19.921875 45.703125 
L 28.515625 45.703125 
L 33.984375 16.40625 
L 34.765625 16.40625 
L 39.84375 45.703125 
z
" id="SimHei-77"/>
      <path id="SimHei-20"/>
      <path d="M 28.90625 1.953125 
L 19.921875 1.953125 
L 19.921875 68.75 
L 28.90625 68.75 
z
" id="SimHei-49"/>
      <path d="M 43.75 1.953125 
L 35.9375 1.953125 
L 35.9375 30.078125 
Q 35.9375 34.765625 33.59375 37.5 
Q 31.25 40.234375 27.34375 40.234375 
Q 22.265625 40.234375 17.765625 34.953125 
Q 13.28125 29.6875 13.28125 21.875 
L 13.28125 1.953125 
L 5.46875 1.953125 
L 5.46875 45.703125 
L 13.28125 45.703125 
L 13.28125 37.5 
Q 16.40625 41.796875 20.109375 44.140625 
Q 23.828125 46.484375 29.6875 46.484375 
Q 36.71875 46.484375 40.234375 42.578125 
Q 43.75 38.671875 43.75 32.8125 
z
" id="SimHei-6e"/>
      <path d="M 44.140625 23.828125 
Q 44.140625 12.5 38.671875 6.640625 
Q 33.203125 0.78125 25.390625 0.78125 
Q 21.09375 0.78125 17.96875 2.53125 
Q 14.84375 4.296875 12.5 7.8125 
L 12.5 -12.5 
L 4.6875 -12.5 
L 4.6875 45.703125 
L 12.5 45.703125 
L 12.5 39.84375 
Q 14.84375 43.359375 17.96875 44.921875 
Q 21.09375 46.484375 25.390625 46.484375 
Q 33.203125 46.484375 38.671875 40.8125 
Q 44.140625 35.15625 44.140625 23.828125 
z
M 35.546875 23.828125 
Q 35.546875 31.25 32.609375 35.34375 
Q 29.6875 39.453125 23.828125 39.453125 
Q 19.140625 39.453125 15.8125 35.34375 
Q 12.5 31.25 12.5 23.828125 
Q 12.5 16.40625 15.8125 12.109375 
Q 19.140625 7.8125 23.828125 7.8125 
Q 29.6875 7.8125 32.609375 12.109375 
Q 35.546875 16.40625 35.546875 23.828125 
z
" id="SimHei-70"/>
      <path d="M 42.96875 3.125 
Q 41.015625 2.34375 38.46875 1.75 
Q 35.9375 1.171875 31.640625 1.171875 
Q 24.609375 1.171875 20.3125 5.078125 
Q 16.015625 8.984375 16.015625 16.015625 
L 16.015625 39.453125 
L 2.734375 39.453125 
L 2.734375 45.703125 
L 16.015625 45.703125 
L 16.015625 60.9375 
L 23.828125 60.9375 
L 23.828125 45.703125 
L 39.84375 45.703125 
L 39.84375 39.453125 
L 23.828125 39.453125 
L 23.828125 15.625 
Q 23.828125 12.5 25.390625 10.34375 
Q 26.953125 8.203125 31.25 8.203125 
Q 35.546875 8.203125 38.28125 8.984375 
Q 41.015625 9.765625 42.96875 10.9375 
z
" id="SimHei-74"/>
      <path d="M 45.703125 35.15625 
Q 45.703125 17.1875 38.078125 9.5625 
Q 30.46875 1.953125 17.578125 1.953125 
L 4.296875 1.953125 
L 4.296875 68.75 
L 17.578125 68.75 
Q 32.03125 68.75 38.859375 60.9375 
Q 45.703125 53.125 45.703125 35.15625 
z
M 36.328125 35.15625 
Q 36.328125 49.609375 31.640625 55.46875 
Q 26.953125 61.328125 17.578125 61.328125 
L 13.28125 61.328125 
L 13.28125 9.375 
L 17.578125 9.375 
Q 26.953125 9.375 31.640625 15.03125 
Q 36.328125 20.703125 36.328125 35.15625 
z
" id="SimHei-44"/>
     </defs>
     <g transform="translate(190.4 109.896364)scale(0.1 -0.1)">
      <use xlink:href="#SimHei-52"/>
      <use x="50" xlink:href="#SimHei-61"/>
      <use x="100" xlink:href="#SimHei-77"/>
      <use x="150" xlink:href="#SimHei-20"/>
      <use x="200" xlink:href="#SimHei-49"/>
      <use x="250" xlink:href="#SimHei-6e"/>
      <use x="300" xlink:href="#SimHei-70"/>
      <use x="350" xlink:href="#SimHei-75"/>
      <use x="400" xlink:href="#SimHei-74"/>
      <use x="450" xlink:href="#SimHei-20"/>
      <use x="500" xlink:href="#SimHei-44"/>
      <use x="550" xlink:href="#SimHei-61"/>
      <use x="600" xlink:href="#SimHei-74"/>
      <use x="650" xlink:href="#SimHei-61"/>
     </g>
    </g>
    <g id="line2d_5">
     <path d="M 162.4 119.646364 
L 182.4 119.646364 
" style="fill:none;stroke:#ff7f0e;stroke-linecap:square;stroke-width:1.5;"/>
    </g>
    <g id="line2d_6"/>
    <g id="text_5">
     <!-- Reconstructed Data -->
     <defs>
      <path d="M 44.53125 19.53125 
Q 44.53125 11.328125 38.859375 6.25 
Q 33.203125 1.171875 24.609375 1.171875 
Q 16.015625 1.171875 9.765625 7.21875 
Q 3.515625 13.28125 3.515625 23.828125 
Q 3.515625 34.375 9.765625 40.421875 
Q 16.015625 46.484375 24.609375 46.484375 
Q 33.203125 46.484375 38.28125 41.984375 
Q 43.359375 37.5 43.359375 31.25 
L 34.765625 31.25 
Q 34.375 35.9375 31.4375 37.6875 
Q 28.515625 39.453125 24.609375 39.453125 
Q 19.921875 39.453125 16.015625 35.734375 
Q 12.109375 32.03125 12.109375 23.828125 
Q 12.109375 15.625 16.015625 11.90625 
Q 19.921875 8.203125 24.609375 8.203125 
Q 29.6875 8.203125 32.8125 10.9375 
Q 35.9375 13.671875 35.9375 19.53125 
z
" id="SimHei-63"/>
      <path d="M 45.703125 23.828125 
Q 45.703125 13.671875 39.453125 7.421875 
Q 33.203125 1.171875 24.609375 1.171875 
Q 16.015625 1.171875 9.765625 7.421875 
Q 3.515625 13.671875 3.515625 23.828125 
Q 3.515625 33.984375 9.765625 40.234375 
Q 16.015625 46.484375 24.609375 46.484375 
Q 33.203125 46.484375 39.453125 40.234375 
Q 45.703125 33.984375 45.703125 23.828125 
z
M 37.109375 23.828125 
Q 37.109375 31.640625 33.203125 35.546875 
Q 29.296875 39.453125 24.609375 39.453125 
Q 19.921875 39.453125 16.015625 35.546875 
Q 12.109375 31.640625 12.109375 23.828125 
Q 12.109375 16.015625 16.015625 12.109375 
Q 19.921875 8.203125 24.609375 8.203125 
Q 29.296875 8.203125 33.203125 12.109375 
Q 37.109375 16.015625 37.109375 23.828125 
z
" id="SimHei-6f"/>
      <path d="M 42.96875 14.0625 
Q 42.96875 7.8125 38.078125 4.484375 
Q 33.203125 1.171875 25.78125 1.171875 
Q 16.40625 1.171875 11.328125 4.875 
Q 6.25 8.59375 6.25 15.625 
L 14.0625 15.625 
Q 14.0625 10.9375 17.375 9.375 
Q 20.703125 7.8125 25.390625 7.8125 
Q 30.078125 7.8125 32.421875 9.5625 
Q 34.765625 11.328125 34.765625 14.0625 
Q 34.765625 16.015625 32.8125 17.96875 
Q 30.859375 19.921875 23.046875 21.09375 
Q 14.0625 22.265625 10.734375 25.578125 
Q 7.421875 28.90625 7.421875 34.375 
Q 7.421875 39.0625 11.90625 42.765625 
Q 16.40625 46.484375 25 46.484375 
Q 32.8125 46.484375 37.296875 42.96875 
Q 41.796875 39.453125 41.796875 33.59375 
L 33.984375 33.59375 
Q 33.984375 37.109375 31.4375 38.46875 
Q 28.90625 39.84375 25 39.84375 
Q 19.921875 39.84375 17.765625 38.078125 
Q 15.625 36.328125 15.625 33.984375 
Q 15.625 31.25 17.578125 29.6875 
Q 19.53125 28.125 25.78125 27.34375 
Q 35.9375 25.78125 39.453125 22.453125 
Q 42.96875 19.140625 42.96875 14.0625 
z
" id="SimHei-73"/>
      <path d="M 39.0625 37.890625 
Q 31.640625 39.0625 26.5625 35.734375 
Q 21.484375 32.421875 17.96875 24.21875 
L 17.96875 1.953125 
L 10.15625 1.953125 
L 10.15625 45.703125 
L 17.96875 45.703125 
L 17.96875 34.375 
Q 21.484375 40.625 26.75 43.546875 
Q 32.03125 46.484375 39.0625 46.484375 
z
" id="SimHei-72"/>
      <path d="M 42.96875 1.953125 
L 35.15625 1.953125 
L 35.15625 7.8125 
Q 32.8125 4.296875 29.6875 2.734375 
Q 26.5625 1.171875 22.265625 1.171875 
Q 14.453125 1.171875 8.984375 6.828125 
Q 3.515625 12.5 3.515625 23.828125 
Q 3.515625 35.15625 8.984375 41.015625 
Q 14.453125 46.875 22.265625 46.875 
Q 26.5625 46.875 29.6875 45.109375 
Q 32.8125 43.359375 35.15625 39.84375 
L 35.15625 68.75 
L 42.96875 68.75 
z
M 35.15625 23.828125 
Q 35.15625 31.25 31.828125 35.546875 
Q 28.515625 39.84375 23.828125 39.84375 
Q 17.96875 39.84375 15.03125 35.546875 
Q 12.109375 31.25 12.109375 23.828125 
Q 12.109375 16.40625 15.03125 12.296875 
Q 17.96875 8.203125 23.828125 8.203125 
Q 28.515625 8.203125 31.828125 12.296875 
Q 35.15625 16.40625 35.15625 23.828125 
z
" id="SimHei-64"/>
     </defs>
     <g transform="translate(190.4 123.146364)scale(0.1 -0.1)">
      <use xlink:href="#SimHei-52"/>
      <use x="50" xlink:href="#SimHei-65"/>
      <use x="100" xlink:href="#SimHei-63"/>
      <use x="150" xlink:href="#SimHei-6f"/>
      <use x="200" xlink:href="#SimHei-6e"/>
      <use x="250" xlink:href="#SimHei-73"/>
      <use x="300" xlink:href="#SimHei-74"/>
      <use x="350" xlink:href="#SimHei-72"/>
      <use x="400" xlink:href="#SimHei-75"/>
      <use x="450" xlink:href="#SimHei-63"/>
      <use x="500" xlink:href="#SimHei-74"/>
      <use x="550" xlink:href="#SimHei-65"/>
      <use x="600" xlink:href="#SimHei-64"/>
      <use x="650" xlink:href="#SimHei-20"/>
      <use x="700" xlink:href="#SimHei-44"/>
      <use x="750" xlink:href="#SimHei-61"/>
      <use x="800" xlink:href="#SimHei-74"/>
      <use x="850" xlink:href="#SimHei-61"/>
     </g>
    </g>
   </g>
  </g>
 </g>
 <defs>
  <clipPath id="pdc30a2e29b">
   <rect height="98.836364" width="334.8" x="54" y="34.56"/>
  </clipPath>
 </defs>
</svg>
