<?xml version="1.0" encoding="utf-8" standalone="no"?>
<!DOCTYPE svg PUBLIC "-//W3C//DTD SVG 1.1//EN"
  "http://www.w3.org/Graphics/SVG/1.1/DTD/svg11.dtd">
<!-- Created with matplotlib (http://matplotlib.org/) -->
<svg height="288pt" version="1.1" viewBox="0 0 432 288" width="432pt" xmlns="http://www.w3.org/2000/svg" xmlns:xlink="http://www.w3.org/1999/xlink">
 <defs>
  <style type="text/css">
*{stroke-linecap:butt;stroke-linejoin:round;}
  </style>
 </defs>
 <g id="figure_1">
  <g id="patch_1">
   <path d="M 0 288 
L 432 288 
L 432 0 
L 0 0 
z
" style="fill:#ffffff;"/>
  </g>
  <g id="axes_1">
   <g id="patch_2">
    <path d="M 54 133.396364 
L 388.8 133.396364 
L 388.8 34.56 
L 54 34.56 
z
" style="fill:#ffffff;"/>
   </g>
   <g id="matplotlib.axis_1">
    <g id="xtick_1">
     <g id="line2d_1">
      <path clip-path="url(#p5ad80ebd8d)" d="M 69.218182 133.396364 
L 69.218182 34.56 
" style="fill:none;stroke:#b0b0b0;stroke-linecap:square;stroke-width:0.8;"/>
     </g>
     <g id="line2d_2">
      <defs>
       <path d="M 0 0 
L 0 3.5 
" id="mf8eec99518" style="stroke:#000000;stroke-width:0.8;"/>
      </defs>
      <g>
       <use style="stroke:#000000;stroke-width:0.8;" x="69.218182" xlink:href="#mf8eec99518" y="133.396364"/>
      </g>
     </g>
     <g id="text_1">
      <!-- 0 -->
      <defs>
       <path d="M 3.125 29.296875 
Q 3.90625 50 6.4375 56.046875 
Q 8.984375 62.109375 13.671875 66.015625 
Q 18.359375 69.921875 25.1875 69.921875 
Q 32.03125 69.921875 37.109375 64.25 
Q 42.1875 58.59375 43.75 50 
Q 45.3125 41.40625 44.71875 30.265625 
Q 44.140625 19.140625 40.8125 12.109375 
Q 37.5 5.078125 30.859375 2.34375 
Q 24.21875 -0.390625 17.578125 2.921875 
Q 10.9375 6.25 8.203125 11.71875 
Q 5.46875 17.1875 4.296875 23.234375 
Q 3.125 29.296875 3.90625 50 
z
M 12.890625 52.734375 
Q 10.546875 31.25 12.5 22.84375 
Q 14.453125 14.453125 18.9375 10.9375 
Q 23.4375 7.421875 28.125 9.5625 
Q 32.8125 11.71875 34.953125 18.15625 
Q 37.109375 24.609375 37.109375 32.21875 
Q 37.109375 39.84375 36.515625 46.09375 
Q 35.9375 52.34375 33 57.421875 
Q 30.078125 62.5 25.1875 62.6875 
Q 20.3125 62.890625 16.59375 57.8125 
Q 12.890625 52.734375 10.546875 31.25 
z
" id="SimHei-30"/>
      </defs>
      <g transform="translate(66.718182 147.271364)scale(0.1 -0.1)">
       <use xlink:href="#SimHei-30"/>
      </g>
     </g>
    </g>
    <g id="xtick_2">
     <g id="line2d_3">
      <path clip-path="url(#p5ad80ebd8d)" d="M 114.64559 133.396364 
L 114.64559 34.56 
" style="fill:none;stroke:#b0b0b0;stroke-linecap:square;stroke-width:0.8;"/>
     </g>
     <g id="line2d_4">
      <g>
       <use style="stroke:#000000;stroke-width:0.8;" x="114.64559" xlink:href="#mf8eec99518" y="133.396364"/>
      </g>
     </g>
     <g id="text_2">
      <!-- 10 -->
      <defs>
       <path d="M 21.875 56.25 
Q 16.796875 51.171875 8.984375 46.484375 
L 8.984375 53.90625 
Q 18.75 60.546875 25 69.53125 
L 29.6875 69.53125 
L 29.6875 2.34375 
L 21.875 2.34375 
z
" id="SimHei-31"/>
      </defs>
      <g transform="translate(109.64559 147.271364)scale(0.1 -0.1)">
       <use xlink:href="#SimHei-31"/>
       <use x="50" xlink:href="#SimHei-30"/>
      </g>
     </g>
    </g>
    <g id="xtick_3">
     <g id="line2d_5">
      <path clip-path="url(#p5ad80ebd8d)" d="M 160.072999 133.396364 
L 160.072999 34.56 
" style="fill:none;stroke:#b0b0b0;stroke-linecap:square;stroke-width:0.8;"/>
     </g>
     <g id="line2d_6">
      <g>
       <use style="stroke:#000000;stroke-width:0.8;" x="160.072999" xlink:href="#mf8eec99518" y="133.396364"/>
      </g>
     </g>
     <g id="text_3">
      <!-- 20 -->
      <defs>
       <path d="M 4.6875 3.90625 
Q 5.078125 9.765625 10.15625 14.453125 
Q 15.234375 19.140625 23.046875 29.09375 
Q 30.859375 39.0625 33.203125 44.53125 
Q 35.546875 50 34.953125 53.90625 
Q 34.375 57.8125 31.25 60.34375 
Q 28.125 62.890625 24.015625 62.5 
Q 19.921875 62.109375 16.203125 59.375 
Q 12.5 56.640625 10.546875 51.171875 
L 3.125 52.34375 
Q 6.25 61.328125 11.125 65.421875 
Q 16.015625 69.53125 22.65625 69.921875 
Q 26.5625 70.3125 29.6875 69.71875 
Q 32.8125 69.140625 36.125 66.984375 
Q 39.453125 64.84375 41.59375 60.546875 
Q 43.75 56.25 43.15625 50.1875 
Q 42.578125 44.140625 37.109375 35.734375 
Q 31.640625 27.34375 16.015625 9.375 
L 44.140625 9.375 
L 44.140625 2.34375 
L 4.6875 2.34375 
z
" id="SimHei-32"/>
      </defs>
      <g transform="translate(155.072999 147.271364)scale(0.1 -0.1)">
       <use xlink:href="#SimHei-32"/>
       <use x="50" xlink:href="#SimHei-30"/>
      </g>
     </g>
    </g>
    <g id="xtick_4">
     <g id="line2d_7">
      <path clip-path="url(#p5ad80ebd8d)" d="M 205.500407 133.396364 
L 205.500407 34.56 
" style="fill:none;stroke:#b0b0b0;stroke-linecap:square;stroke-width:0.8;"/>
     </g>
     <g id="line2d_8">
      <g>
       <use style="stroke:#000000;stroke-width:0.8;" x="205.500407" xlink:href="#mf8eec99518" y="133.396364"/>
      </g>
     </g>
     <g id="text_4">
      <!-- 30 -->
      <defs>
       <path d="M 3.90625 19.140625 
L 10.9375 20.3125 
Q 12.5 15.234375 16.015625 11.90625 
Q 19.53125 8.59375 24.796875 8.78125 
Q 30.078125 8.984375 33.203125 13.078125 
Q 36.328125 17.1875 35.9375 22.453125 
Q 35.546875 27.734375 31.828125 30.65625 
Q 28.125 33.59375 19.921875 34.765625 
L 19.921875 39.84375 
Q 28.125 40.625 31.828125 44.140625 
Q 35.546875 47.65625 35.15625 53.3125 
Q 34.765625 58.984375 30.078125 61.515625 
Q 25.390625 64.0625 20.109375 62.109375 
Q 14.84375 60.15625 11.71875 51.171875 
L 4.6875 52.34375 
Q 7.03125 59.375 11.125 64.0625 
Q 15.234375 68.75 22.265625 69.53125 
Q 29.296875 70.3125 34.5625 67.765625 
Q 39.84375 65.234375 41.984375 59.953125 
Q 44.140625 54.6875 42.578125 48.4375 
Q 41.015625 42.1875 33.59375 37.5 
Q 39.0625 35.15625 41.984375 30.46875 
Q 44.921875 25.78125 43.9375 18.15625 
Q 42.96875 10.546875 37.109375 5.859375 
Q 31.25 1.171875 23.828125 1.359375 
Q 16.40625 1.5625 10.9375 6.046875 
Q 5.46875 10.546875 3.90625 19.140625 
z
" id="SimHei-33"/>
      </defs>
      <g transform="translate(200.500407 147.271364)scale(0.1 -0.1)">
       <use xlink:href="#SimHei-33"/>
       <use x="50" xlink:href="#SimHei-30"/>
      </g>
     </g>
    </g>
    <g id="xtick_5">
     <g id="line2d_9">
      <path clip-path="url(#p5ad80ebd8d)" d="M 250.927815 133.396364 
L 250.927815 34.56 
" style="fill:none;stroke:#b0b0b0;stroke-linecap:square;stroke-width:0.8;"/>
     </g>
     <g id="line2d_10">
      <g>
       <use style="stroke:#000000;stroke-width:0.8;" x="250.927815" xlink:href="#mf8eec99518" y="133.396364"/>
      </g>
     </g>
     <g id="text_5">
      <!-- 40 -->
      <defs>
       <path d="M 31.25 17.1875 
L 1.171875 17.1875 
L 1.171875 23.828125 
L 32.8125 69.53125 
L 38.671875 69.53125 
L 38.671875 23.828125 
L 48.046875 23.828125 
L 48.046875 17.1875 
L 38.671875 17.1875 
L 38.671875 2.34375 
L 31.25 2.34375 
z
M 31.25 23.828125 
L 31.25 54.6875 
L 9.375 23.828125 
z
" id="SimHei-34"/>
      </defs>
      <g transform="translate(245.927815 147.271364)scale(0.1 -0.1)">
       <use xlink:href="#SimHei-34"/>
       <use x="50" xlink:href="#SimHei-30"/>
      </g>
     </g>
    </g>
    <g id="xtick_6">
     <g id="line2d_11">
      <path clip-path="url(#p5ad80ebd8d)" d="M 296.355224 133.396364 
L 296.355224 34.56 
" style="fill:none;stroke:#b0b0b0;stroke-linecap:square;stroke-width:0.8;"/>
     </g>
     <g id="line2d_12">
      <g>
       <use style="stroke:#000000;stroke-width:0.8;" x="296.355224" xlink:href="#mf8eec99518" y="133.396364"/>
      </g>
     </g>
     <g id="text_6">
      <!-- 50 -->
      <defs>
       <path d="M 8.59375 20.703125 
Q 11.328125 10.15625 17.96875 8.984375 
Q 24.609375 7.8125 28.703125 10.34375 
Q 32.8125 12.890625 34.5625 16.984375 
Q 36.328125 21.09375 36.125 26.171875 
Q 35.9375 31.25 33.390625 34.765625 
Q 30.859375 38.28125 26.953125 39.453125 
Q 23.046875 40.625 18.15625 39.453125 
Q 13.28125 38.28125 10.15625 33.984375 
L 3.515625 34.765625 
Q 4.296875 37.109375 10.9375 68.359375 
L 41.796875 68.359375 
L 41.796875 61.328125 
L 16.796875 61.328125 
Q 14.84375 50.78125 12.890625 44.53125 
Q 18.75 47.265625 23.828125 47.0625 
Q 28.90625 46.875 33.59375 44.71875 
Q 38.28125 42.578125 40.421875 38.859375 
Q 42.578125 35.15625 43.546875 31.4375 
Q 44.53125 27.734375 44.328125 23.4375 
Q 44.140625 19.140625 42.578125 14.640625 
Q 41.015625 10.15625 37.890625 7.21875 
Q 34.765625 4.296875 30.265625 2.53125 
Q 25.78125 0.78125 19.921875 1.171875 
Q 14.0625 1.5625 8.78125 5.46875 
Q 3.515625 9.375 1.5625 18.75 
z
" id="SimHei-35"/>
      </defs>
      <g transform="translate(291.355224 147.271364)scale(0.1 -0.1)">
       <use xlink:href="#SimHei-35"/>
       <use x="50" xlink:href="#SimHei-30"/>
      </g>
     </g>
    </g>
    <g id="xtick_7">
     <g id="line2d_13">
      <path clip-path="url(#p5ad80ebd8d)" d="M 341.782632 133.396364 
L 341.782632 34.56 
" style="fill:none;stroke:#b0b0b0;stroke-linecap:square;stroke-width:0.8;"/>
     </g>
     <g id="line2d_14">
      <g>
       <use style="stroke:#000000;stroke-width:0.8;" x="341.782632" xlink:href="#mf8eec99518" y="133.396364"/>
      </g>
     </g>
     <g id="text_7">
      <!-- 60 -->
      <defs>
       <path d="M 3.515625 19.53125 
Q 4.296875 30.859375 6.046875 34.765625 
Q 7.8125 38.671875 11.328125 44.53125 
L 27.34375 69.53125 
L 36.328125 69.53125 
L 19.921875 43.75 
Q 30.46875 46.484375 36.71875 42.96875 
Q 42.96875 39.453125 45.109375 34.953125 
Q 47.265625 30.46875 47.453125 25.1875 
Q 47.65625 19.921875 45.890625 14.84375 
Q 44.140625 9.765625 39.640625 5.65625 
Q 35.15625 1.5625 27.140625 1.171875 
Q 19.140625 0.78125 13.46875 4.09375 
Q 7.8125 7.421875 5.65625 13.46875 
Q 3.515625 19.53125 4.296875 30.859375 
z
M 12.5 16.015625 
Q 19.53125 8.59375 25.390625 8.203125 
Q 31.25 7.8125 35.15625 12.109375 
Q 39.0625 16.40625 39.0625 24.609375 
Q 39.0625 32.8125 34.171875 35.9375 
Q 29.296875 39.0625 23.234375 38.28125 
Q 17.1875 37.5 14.453125 32.421875 
Q 11.71875 27.34375 12.109375 21.671875 
Q 12.5 16.015625 19.53125 8.59375 
z
" id="SimHei-36"/>
      </defs>
      <g transform="translate(336.782632 147.271364)scale(0.1 -0.1)">
       <use xlink:href="#SimHei-36"/>
       <use x="50" xlink:href="#SimHei-30"/>
      </g>
     </g>
    </g>
    <g id="xtick_8">
     <g id="line2d_15">
      <path clip-path="url(#p5ad80ebd8d)" d="M 387.210041 133.396364 
L 387.210041 34.56 
" style="fill:none;stroke:#b0b0b0;stroke-linecap:square;stroke-width:0.8;"/>
     </g>
     <g id="line2d_16">
      <g>
       <use style="stroke:#000000;stroke-width:0.8;" x="387.210041" xlink:href="#mf8eec99518" y="133.396364"/>
      </g>
     </g>
     <g id="text_8">
      <!-- 70 -->
      <defs>
       <path d="M 13.28125 2.34375 
Q 20.3125 32.03125 37.890625 61.328125 
L 4.296875 61.328125 
L 4.296875 68.359375 
L 46.09375 68.359375 
L 46.09375 61.71875 
Q 27.734375 32.03125 21.875 2.34375 
L 13.28125 2.34375 
z
" id="SimHei-37"/>
      </defs>
      <g transform="translate(382.210041 147.271364)scale(0.1 -0.1)">
       <use xlink:href="#SimHei-37"/>
       <use x="50" xlink:href="#SimHei-30"/>
      </g>
     </g>
    </g>
    <g id="text_9">
     <!-- 频点 -->
     <defs>
      <path d="M 66.40625 69.53125 
Q 55.859375 69.53125 48.828125 69.140625 
L 48.828125 75.78125 
Q 55.46875 75.390625 61.328125 75.390625 
L 81.640625 75.390625 
Q 87.5 75.390625 93.75 75.78125 
L 93.75 69.140625 
Q 87.5 69.53125 73.4375 69.53125 
Q 72.265625 63.28125 71.09375 56.640625 
L 91.796875 56.640625 
Q 91.40625 51.171875 91.40625 45.3125 
L 91.40625 25.78125 
Q 91.40625 20.3125 91.796875 11.71875 
L 84.375 11.71875 
L 84.375 50.78125 
L 60.546875 50.78125 
L 60.546875 12.5 
L 53.125 12.5 
Q 53.515625 19.921875 53.515625 25.78125 
L 53.515625 44.140625 
Q 53.515625 51.171875 53.125 56.640625 
L 64.453125 56.640625 
Q 65.625 64.0625 66.40625 69.53125 
z
M 26.171875 42.96875 
Q 10.15625 42.96875 5.46875 42.578125 
L 5.46875 49.21875 
Q 8.59375 48.828125 11.328125 48.828125 
Q 11.328125 66.796875 10.9375 72.265625 
L 18.75 72.265625 
Q 18.359375 66.796875 18.359375 48.828125 
L 26.171875 48.828125 
L 26.171875 66.796875 
Q 26.171875 74.21875 25.78125 80.078125 
L 33.59375 80.078125 
Q 33.203125 74.21875 33.203125 66.40625 
Q 41.015625 66.40625 47.265625 66.796875 
L 47.265625 60.15625 
Q 41.015625 60.546875 33.203125 60.546875 
L 33.203125 48.828125 
Q 44.53125 48.828125 49.21875 49.21875 
L 49.21875 42.578125 
Q 44.53125 42.96875 33.203125 42.96875 
L 26.171875 42.96875 
z
M 33.59375 40.625 
Q 33.203125 35.15625 33.203125 30.078125 
L 33.203125 16.40625 
Q 40.625 25.78125 41.40625 34.375 
Q 44.921875 32.8125 49.609375 32.421875 
Q 44.53125 16.796875 34.171875 7.03125 
Q 23.828125 -2.734375 10.9375 -7.8125 
Q 8.59375 -3.90625 3.125 -1.171875 
Q 11.71875 1.171875 16.984375 3.703125 
Q 22.265625 6.25 26.171875 9.765625 
L 26.171875 29.6875 
Q 26.171875 35.15625 25.78125 40.625 
L 33.59375 40.625 
z
M 43.359375 -3.90625 
Q 53.125 -1.171875 58.390625 3.515625 
Q 63.671875 8.203125 65.8125 13.859375 
Q 67.96875 19.53125 68.15625 26.953125 
Q 68.359375 34.375 67.96875 42.96875 
Q 72.65625 42.1875 76.953125 41.40625 
Q 75.78125 36.328125 75.578125 30.859375 
Q 75.390625 25.390625 74.21875 17.375 
Q 73.046875 9.375 67.1875 2.53125 
Q 61.328125 -4.296875 50.78125 -10.15625 
Q 48.046875 -7.03125 43.359375 -3.90625 
z
M 91.40625 -10.15625 
Q 86.71875 -4.296875 75 3.90625 
Q 77.734375 6.640625 79.296875 9.375 
Q 91.015625 1.171875 96.875 -3.90625 
Q 93.359375 -6.640625 91.40625 -10.15625 
z
M 6.25 18.359375 
Q 10.15625 24.21875 14.0625 37.109375 
Q 17.578125 35.546875 21.484375 34.765625 
Q 15.625 20.703125 13.28125 16.015625 
Q 10.15625 17.96875 6.25 18.359375 
z
" id="SimHei-9891"/>
      <path d="M 51.953125 81.25 
Q 51.5625 76.953125 51.5625 68.359375 
L 76.5625 68.359375 
Q 82.421875 68.359375 89.453125 68.75 
L 89.453125 61.328125 
Q 82.8125 61.71875 76.5625 61.71875 
L 51.5625 61.71875 
L 51.5625 50.390625 
L 81.640625 50.390625 
Q 81.25 42.1875 81.25 33.59375 
Q 81.25 25.390625 81.640625 18.359375 
L 18.359375 18.359375 
Q 18.75 25.390625 18.75 33.984375 
Q 18.75 42.578125 18.359375 50.390625 
L 43.359375 50.390625 
L 43.359375 70.3125 
Q 43.359375 76.5625 42.96875 81.25 
L 51.953125 81.25 
z
M 73.4375 25 
L 73.4375 43.75 
L 26.953125 43.75 
L 26.953125 25 
z
M 23.4375 11.71875 
Q 16.015625 -3.90625 12.890625 -9.765625 
Q 9.765625 -7.421875 5.078125 -5.859375 
Q 10.15625 0.78125 14.84375 14.453125 
Q 18.75 12.5 23.4375 11.71875 
z
M 83.203125 13.28125 
Q 90.234375 2.34375 94.921875 -5.46875 
Q 92.578125 -6.640625 87.109375 -9.765625 
Q 83.984375 -2.34375 76.5625 8.984375 
Q 80.46875 10.9375 83.203125 13.28125 
z
M 62.109375 -8.984375 
Q 58.984375 -1.5625 53.125 8.984375 
Q 55.859375 10.546875 59.765625 12.890625 
Q 67.96875 -1.171875 69.53125 -5.078125 
Q 65.625 -7.03125 62.109375 -8.984375 
z
M 37.109375 -8.984375 
Q 36.71875 -4.6875 30.859375 8.59375 
Q 34.375 9.765625 37.890625 12.109375 
Q 43.75 -1.171875 45.3125 -5.46875 
Q 41.015625 -7.03125 37.109375 -8.984375 
z
" id="SimHei-70b9"/>
     </defs>
     <g transform="translate(211.4 160.411989)scale(0.1 -0.1)">
      <use xlink:href="#SimHei-9891"/>
      <use x="100" xlink:href="#SimHei-70b9"/>
     </g>
    </g>
   </g>
   <g id="matplotlib.axis_2">
    <g id="ytick_1">
     <g id="line2d_17">
      <path clip-path="url(#p5ad80ebd8d)" d="M 54 133.396364 
L 388.8 133.396364 
" style="fill:none;stroke:#b0b0b0;stroke-linecap:square;stroke-width:0.8;"/>
     </g>
     <g id="line2d_18">
      <defs>
       <path d="M 0 0 
L -3.5 0 
" id="m1b559f4e51" style="stroke:#000000;stroke-width:0.8;"/>
      </defs>
      <g>
       <use style="stroke:#000000;stroke-width:0.8;" x="54" xlink:href="#m1b559f4e51" y="133.396364"/>
      </g>
     </g>
     <g id="text_10">
      <!-- 0.0 -->
      <defs>
       <path d="M 16.796875 1.953125 
L 7.8125 1.953125 
L 7.8125 10.546875 
L 16.796875 10.546875 
z
" id="SimHei-2e"/>
      </defs>
      <g transform="translate(32 136.833864)scale(0.1 -0.1)">
       <use xlink:href="#SimHei-30"/>
       <use x="50" xlink:href="#SimHei-2e"/>
       <use x="100" xlink:href="#SimHei-30"/>
      </g>
     </g>
    </g>
    <g id="ytick_2">
     <g id="line2d_19">
      <path clip-path="url(#p5ad80ebd8d)" d="M 54 100.450909 
L 388.8 100.450909 
" style="fill:none;stroke:#b0b0b0;stroke-linecap:square;stroke-width:0.8;"/>
     </g>
     <g id="line2d_20">
      <g>
       <use style="stroke:#000000;stroke-width:0.8;" x="54" xlink:href="#m1b559f4e51" y="100.450909"/>
      </g>
     </g>
     <g id="text_11">
      <!-- 0.5 -->
      <g transform="translate(32 103.888409)scale(0.1 -0.1)">
       <use xlink:href="#SimHei-30"/>
       <use x="50" xlink:href="#SimHei-2e"/>
       <use x="100" xlink:href="#SimHei-35"/>
      </g>
     </g>
    </g>
    <g id="ytick_3">
     <g id="line2d_21">
      <path clip-path="url(#p5ad80ebd8d)" d="M 54 67.505455 
L 388.8 67.505455 
" style="fill:none;stroke:#b0b0b0;stroke-linecap:square;stroke-width:0.8;"/>
     </g>
     <g id="line2d_22">
      <g>
       <use style="stroke:#000000;stroke-width:0.8;" x="54" xlink:href="#m1b559f4e51" y="67.505455"/>
      </g>
     </g>
     <g id="text_12">
      <!-- 1.0 -->
      <g transform="translate(32 70.942955)scale(0.1 -0.1)">
       <use xlink:href="#SimHei-31"/>
       <use x="50" xlink:href="#SimHei-2e"/>
       <use x="100" xlink:href="#SimHei-30"/>
      </g>
     </g>
    </g>
    <g id="ytick_4">
     <g id="line2d_23">
      <path clip-path="url(#p5ad80ebd8d)" d="M 54 34.56 
L 388.8 34.56 
" style="fill:none;stroke:#b0b0b0;stroke-linecap:square;stroke-width:0.8;"/>
     </g>
     <g id="line2d_24">
      <g>
       <use style="stroke:#000000;stroke-width:0.8;" x="54" xlink:href="#m1b559f4e51" y="34.56"/>
      </g>
     </g>
     <g id="text_13">
      <!-- 1.5 -->
      <g transform="translate(32 37.9975)scale(0.1 -0.1)">
       <use xlink:href="#SimHei-31"/>
       <use x="50" xlink:href="#SimHei-2e"/>
       <use x="100" xlink:href="#SimHei-35"/>
      </g>
     </g>
    </g>
    <g id="text_14">
     <!-- 幅度 -->
     <defs>
      <path d="M 92.96875 35.15625 
Q 92.578125 29.296875 92.578125 14.0625 
Q 92.578125 -0.78125 92.96875 -6.640625 
L 85.15625 -6.640625 
L 85.15625 -2.734375 
L 52.34375 -2.734375 
L 52.34375 -7.421875 
L 44.921875 -7.421875 
Q 45.3125 3.125 45.3125 16.015625 
Q 45.3125 29.296875 44.921875 35.15625 
L 92.96875 35.15625 
z
M 40.234375 17.578125 
Q 40.234375 12.5 38.078125 10.9375 
Q 35.9375 9.375 30.46875 8.203125 
Q 29.6875 12.5 27.34375 15.625 
Q 30.859375 15.625 32.421875 16.203125 
Q 33.984375 16.796875 33.984375 20.3125 
L 33.984375 58.203125 
L 26.5625 58.203125 
L 26.5625 7.421875 
Q 26.5625 0 26.953125 -8.59375 
L 19.140625 -8.59375 
Q 19.53125 -0.390625 19.53125 7.421875 
L 19.53125 58.203125 
L 13.28125 58.203125 
L 13.28125 7.8125 
L 6.25 7.8125 
Q 6.640625 15.625 6.640625 35.9375 
Q 6.640625 56.25 6.25 64.0625 
L 19.53125 64.0625 
L 19.53125 70.3125 
Q 19.53125 75.390625 19.140625 80.859375 
L 26.953125 80.859375 
Q 26.5625 75.390625 26.5625 70.3125 
L 26.5625 64.0625 
L 40.625 64.0625 
Q 40.234375 60.9375 40.234375 50.390625 
z
M 87.109375 61.328125 
Q 86.71875 56.640625 86.71875 51.5625 
Q 86.71875 46.484375 87.109375 40.625 
L 50 40.625 
Q 50.390625 46.484375 50.390625 51.5625 
Q 50.390625 56.640625 50 61.328125 
L 87.109375 61.328125 
z
M 82.03125 75 
Q 88.28125 75 94.140625 75.390625 
L 94.140625 68.359375 
Q 88.28125 68.75 82.03125 68.75 
L 55.46875 68.75 
Q 48.046875 68.75 43.75 68.359375 
L 43.75 75.390625 
Q 48.046875 75 55.46875 75 
z
M 80.46875 46.484375 
L 80.46875 55.859375 
L 56.640625 55.859375 
L 56.640625 46.484375 
z
M 85.15625 19.140625 
L 85.15625 29.296875 
L 72.265625 29.296875 
L 72.265625 19.140625 
z
M 65.234375 3.125 
L 65.234375 13.28125 
L 52.34375 13.28125 
L 52.34375 3.125 
z
M 85.15625 3.125 
L 85.15625 13.28125 
L 72.265625 13.28125 
L 72.265625 3.125 
z
M 65.234375 19.140625 
L 65.234375 29.296875 
L 52.34375 29.296875 
L 52.34375 19.140625 
z
" id="SimHei-5e45"/>
      <path d="M 27.34375 26.171875 
Q 38.28125 25.78125 44.921875 25.78125 
L 81.25 25.78125 
Q 77.734375 19.53125 72.65625 13.28125 
Q 67.578125 7.03125 62.890625 3.125 
Q 67.96875 0.78125 77.34375 -0.78125 
Q 86.71875 -2.34375 95.3125 -2.34375 
Q 92.96875 -4.6875 91.015625 -10.15625 
Q 79.6875 -8.59375 71.09375 -6.4375 
Q 62.5 -4.296875 56.640625 -1.5625 
Q 48.4375 -5.078125 40.421875 -7.21875 
Q 32.421875 -9.375 23.828125 -10.546875 
Q 22.65625 -7.421875 19.140625 -3.90625 
Q 26.171875 -3.90625 35.15625 -1.953125 
Q 44.140625 0 50.78125 3.125 
Q 44.140625 8.59375 37.5 19.921875 
L 27.34375 19.53125 
z
M 46.484375 79.296875 
Q 50.78125 80.46875 54.296875 82.03125 
Q 56.640625 77.734375 58.984375 70.703125 
L 73.4375 70.703125 
Q 77.734375 70.703125 89.0625 71.09375 
L 89.0625 64.0625 
Q 78.125 64.453125 72.65625 64.453125 
L 21.484375 64.453125 
Q 21.484375 46.875 21.09375 36.125 
Q 20.703125 25.390625 18.9375 14.84375 
Q 17.1875 4.296875 11.328125 -8.203125 
Q 7.8125 -5.859375 3.90625 -4.6875 
Q 10.15625 6.25 11.90625 16.796875 
Q 13.671875 27.34375 13.859375 43.75 
Q 14.0625 60.15625 13.671875 70.703125 
L 50 70.703125 
Q 48.4375 75.78125 46.484375 79.296875 
z
M 38.671875 51.5625 
Q 38.671875 57.8125 38.28125 61.328125 
L 46.484375 61.328125 
Q 46.09375 58.203125 46.09375 51.5625 
L 67.1875 51.5625 
Q 67.1875 57.8125 66.796875 61.71875 
L 75 61.71875 
Q 74.609375 57.03125 74.609375 51.5625 
Q 83.203125 51.5625 89.453125 51.953125 
L 89.453125 45.3125 
Q 83.59375 45.703125 74.609375 45.703125 
Q 74.609375 35.15625 75 30.46875 
L 38.28125 30.46875 
Q 38.671875 36.71875 38.671875 45.703125 
Q 33.984375 45.703125 25 45.3125 
L 25 51.953125 
Q 33.984375 51.5625 38.671875 51.5625 
z
M 67.1875 36.71875 
L 67.1875 45.703125 
L 46.09375 45.703125 
L 46.09375 36.71875 
z
M 44.921875 19.921875 
Q 50 12.109375 57.03125 6.640625 
Q 62.890625 10.9375 69.140625 19.921875 
L 45.3125 19.921875 
z
" id="SimHei-5ea6"/>
     </defs>
     <g transform="translate(26.75 93.978182)rotate(-90)scale(0.1 -0.1)">
      <use xlink:href="#SimHei-5e45"/>
      <use x="100" xlink:href="#SimHei-5ea6"/>
     </g>
    </g>
   </g>
   <g id="line2d_25">
    <path clip-path="url(#p5ad80ebd8d)" d="M 69.218182 36.536727 
L 73.760923 121.087792 
L 78.303664 110.421801 
L 82.846404 124.469291 
L 87.389145 113.305194 
L 91.931886 115.129513 
L 96.474627 89.120031 
L 101.017368 121.858688 
L 105.560109 127.975709 
L 110.102849 124.712518 
L 114.64559 127.245304 
L 119.188331 127.433186 
L 123.731072 126.744393 
L 128.273813 130.431002 
L 132.816554 128.821328 
L 137.359294 128.90998 
L 141.902035 128.932275 
L 146.444776 128.992219 
L 150.987517 130.66396 
L 155.530258 130.098649 
L 160.072999 131.712074 
L 164.615739 131.711565 
L 169.15848 130.979173 
L 173.701221 130.731693 
L 178.243962 131.429159 
L 182.786703 131.987374 
L 187.329444 131.338066 
L 191.872185 131.406452 
L 196.414925 130.852739 
L 200.957666 130.915694 
L 205.500407 131.936937 
L 210.043148 131.555364 
L 214.585889 132.09076 
L 219.12863 132.424522 
L 223.67137 131.604955 
L 228.214111 132.424522 
L 232.756852 132.09076 
L 237.299593 131.555364 
L 241.842334 131.936937 
L 246.385075 130.915694 
L 250.927815 130.852739 
L 255.470556 131.406452 
L 260.013297 131.338066 
L 264.556038 131.987374 
L 269.098779 131.429159 
L 273.64152 130.731693 
L 278.184261 130.979173 
L 282.727001 131.711565 
L 287.269742 131.712074 
L 291.812483 130.098649 
L 296.355224 130.66396 
L 300.897965 128.992219 
L 305.440706 128.932275 
L 309.983446 128.90998 
L 314.526187 128.821328 
L 319.068928 130.431002 
L 323.611669 126.744393 
L 328.15441 127.433186 
L 332.697151 127.245304 
L 337.239891 124.712518 
L 341.782632 127.975709 
L 346.325373 121.858688 
L 350.868114 89.120031 
L 355.410855 115.129513 
L 359.953596 113.305194 
L 364.496336 124.469291 
L 369.039077 110.421801 
L 373.581818 121.087792 
" style="fill:none;stroke:#1f77b4;stroke-linecap:square;stroke-width:1.5;"/>
   </g>
   <g id="line2d_26">
    <path clip-path="url(#p5ad80ebd8d)" d="M 69.218182 36.536727 
L 73.760923 121.127175 
L 78.303664 110.563609 
L 82.846404 124.282127 
L 87.389145 113.115728 
L 91.931886 114.444312 
L 96.474627 89.862562 
L 101.017368 122.813186 
L 105.560109 130.937293 
L 110.102849 132.341597 
L 114.64559 131.395506 
L 119.188331 129.159756 
L 123.731072 129.917224 
L 128.273813 132.418584 
L 132.816554 131.988303 
L 137.359294 132.212647 
L 141.902035 132.261263 
L 146.444776 132.155017 
L 150.987517 132.827582 
L 155.530258 132.78986 
L 160.072999 133.026776 
L 164.615739 133.106014 
L 169.15848 133.015462 
L 173.701221 132.973072 
L 178.243962 133.119377 
L 182.786703 133.20226 
L 187.329444 133.087499 
L 191.872185 133.112198 
L 196.414925 132.968724 
L 200.957666 132.945375 
L 205.500407 133.212478 
L 210.043148 132.988791 
L 214.585889 133.176641 
L 219.12863 133.174208 
L 223.67137 132.986861 
L 228.214111 133.23281 
L 232.756852 133.107321 
L 237.299593 133.164401 
L 241.842334 133.131038 
L 246.385075 132.979309 
L 250.927815 133.033126 
L 255.470556 133.097761 
L 260.013297 133.112811 
L 264.556038 133.197975 
L 269.098779 133.083867 
L 273.64152 132.976464 
L 278.184261 132.979798 
L 282.727001 133.026664 
L 287.269742 133.086595 
L 291.812483 132.709906 
L 296.355224 132.626212 
L 300.897965 132.276505 
L 305.440706 132.21853 
L 309.983446 132.015587 
L 314.526187 131.887821 
L 319.068928 131.845408 
L 323.611669 128.670396 
L 328.15441 131.456622 
L 332.697151 132.649237 
L 337.239891 129.456951 
L 341.782632 128.424153 
L 346.325373 122.052179 
L 350.868114 87.459198 
L 355.410855 114.957251 
L 359.953596 112.883965 
L 364.496336 124.524392 
L 369.039077 110.495312 
L 373.581818 121.082678 
" style="fill:none;stroke:#ff7f0e;stroke-linecap:square;stroke-width:1.5;"/>
   </g>
   <g id="line2d_27">
    <path clip-path="url(#p5ad80ebd8d)" d="M 69.218182 67.478082 
L 73.760923 67.716285 
L 78.303664 67.912159 
L 82.846404 66.123993 
L 87.389145 66.884082 
L 91.931886 65.033844 
L 96.474627 68.61047 
L 101.017368 72.956527 
L 105.560109 103.50506 
L 110.102849 125.393049 
L 114.64559 111.962931 
L 119.188331 86.583416 
L 123.731072 98.933843 
L 128.273813 111.669918 
L 132.816554 113.117087 
L 137.359294 116.011283 
L 141.902035 116.64203 
L 146.444776 114.82443 
L 150.987517 119.680407 
L 155.530258 121.27795 
L 160.072999 118.937774 
L 164.615739 122.041069 
L 169.15848 123.013262 
L 173.701221 122.929388 
L 178.243962 124.118769 
L 182.786703 124.319197 
L 187.329444 123.508884 
L 191.872185 123.986933 
L 196.414925 122.318654 
L 200.957666 121.417312 
L 205.500407 125.094223 
L 210.043148 118.809005 
L 214.585889 122.307446 
L 219.12863 118.334184 
L 223.67137 118.334184 
L 228.214111 122.307446 
L 232.756852 118.809005 
L 237.299593 125.094223 
L 241.842334 121.417312 
L 246.385075 122.318654 
L 250.927815 123.986933 
L 255.470556 123.508884 
L 260.013297 124.319197 
L 264.556038 124.118769 
L 269.098779 122.929388 
L 273.64152 123.013262 
L 278.184261 122.041069 
L 282.727001 118.937774 
L 287.269742 121.27795 
L 291.812483 119.680407 
L 296.355224 114.82443 
L 300.897965 116.64203 
L 305.440706 116.011283 
L 309.983446 113.117087 
L 314.526187 111.669918 
L 319.068928 98.933843 
L 323.611669 86.583416 
L 328.15441 111.962931 
L 332.697151 125.393049 
L 337.239891 103.50506 
L 341.782632 72.956527 
L 346.325373 68.61047 
L 350.868114 65.033844 
L 355.410855 66.884082 
L 359.953596 66.123993 
L 364.496336 67.912159 
L 369.039077 67.716285 
L 373.581818 67.478082 
" style="fill:none;stroke:#2ca02c;stroke-linecap:square;stroke-width:1.5;"/>
   </g>
   <g id="patch_3">
    <path d="M 54 133.396364 
L 54 34.56 
" style="fill:none;stroke:#000000;stroke-linecap:square;stroke-linejoin:miter;stroke-width:0.8;"/>
   </g>
   <g id="patch_4">
    <path d="M 388.8 133.396364 
L 388.8 34.56 
" style="fill:none;stroke:#000000;stroke-linecap:square;stroke-linejoin:miter;stroke-width:0.8;"/>
   </g>
   <g id="patch_5">
    <path d="M 54 133.396364 
L 388.8 133.396364 
" style="fill:none;stroke:#000000;stroke-linecap:square;stroke-linejoin:miter;stroke-width:0.8;"/>
   </g>
   <g id="patch_6">
    <path d="M 54 34.56 
L 388.8 34.56 
" style="fill:none;stroke:#000000;stroke-linecap:square;stroke-linejoin:miter;stroke-width:0.8;"/>
   </g>
   <g id="text_15">
    <!-- 频域重构过程 -->
    <defs>
     <path d="M 71.09375 79.6875 
Q 69.921875 74.609375 70.3125 64.84375 
L 78.515625 64.84375 
Q 85.15625 64.84375 92.96875 65.234375 
L 92.96875 57.8125 
Q 85.546875 58.203125 78.515625 58.203125 
L 70.703125 58.203125 
Q 71.09375 47.65625 71.875 38.46875 
Q 72.65625 29.296875 74.609375 19.921875 
Q 77.734375 28.90625 78.90625 35.546875 
Q 80.078125 42.1875 80.859375 50 
Q 84.765625 48.046875 89.84375 46.875 
Q 88.671875 44.921875 86.515625 36.515625 
Q 84.375 28.125 82.609375 22.65625 
Q 80.859375 17.1875 78.515625 10.9375 
Q 80.078125 7.03125 83 3.703125 
Q 85.9375 0.390625 87.296875 3.3125 
Q 88.671875 6.25 89.84375 10.9375 
Q 92.1875 8.203125 96.875 6.25 
Q 93.75 -1.5625 90.625 -5.265625 
Q 87.5 -8.984375 82.03125 -5.078125 
Q 76.5625 -1.171875 73.828125 4.6875 
Q 71.484375 1.171875 68.15625 -2.734375 
Q 64.84375 -6.640625 60.546875 -10.15625 
Q 58.59375 -8.203125 53.125 -5.078125 
Q 58.59375 -2.34375 63.078125 2.53125 
Q 67.578125 7.421875 69.921875 12.109375 
Q 67.96875 18.359375 66.984375 23.625 
Q 66.015625 28.90625 65.03125 38.28125 
Q 64.0625 47.65625 63.671875 58.203125 
L 49.21875 58.203125 
Q 39.453125 58.203125 30.859375 57.8125 
L 30.859375 65.234375 
Q 39.453125 64.84375 49.21875 64.84375 
L 63.28125 64.84375 
Q 62.890625 71.875 61.71875 80.859375 
Q 66.40625 80.078125 71.09375 79.6875 
z
M 15.234375 66.40625 
Q 15.234375 75 14.84375 79.6875 
L 22.65625 79.6875 
Q 22.265625 74.21875 22.265625 66.40625 
L 22.265625 51.953125 
Q 25.390625 51.953125 31.25 52.34375 
L 31.25 45.3125 
Q 25.390625 45.703125 22.265625 45.703125 
L 22.265625 15.625 
Q 24.21875 16.796875 31.25 19.921875 
Q 30.859375 16.796875 31.25 12.109375 
Q 26.171875 9.765625 18.75 6.640625 
Q 11.328125 3.515625 7.8125 0.78125 
Q 5.859375 5.078125 3.90625 8.984375 
Q 7.421875 9.765625 10.34375 10.734375 
Q 13.28125 11.71875 15.234375 12.890625 
L 15.234375 45.703125 
Q 9.765625 45.703125 4.6875 45.3125 
L 4.6875 52.34375 
Q 9.375 51.953125 15.234375 51.953125 
z
M 59.375 27.34375 
Q 59.375 22.265625 59.765625 17.96875 
L 34.765625 17.96875 
Q 35.15625 21.484375 35.15625 24.609375 
L 35.15625 39.453125 
Q 35.15625 44.140625 34.765625 48.046875 
L 59.765625 48.046875 
Q 59.375 44.921875 59.375 41.796875 
z
M 29.6875 3.515625 
Q 35.9375 4.6875 44.53125 7.21875 
Q 53.125 9.765625 59.765625 12.5 
Q 59.375 9.375 59.375 5.46875 
Q 54.6875 3.90625 47.0625 1.171875 
Q 39.453125 -1.5625 33.203125 -4.296875 
Q 31.640625 -0.390625 29.6875 3.515625 
z
M 52.34375 23.828125 
L 52.34375 42.1875 
L 42.578125 42.1875 
L 42.578125 23.828125 
z
M 82.8125 67.578125 
Q 80.46875 72.265625 76.5625 76.953125 
Q 78.90625 78.90625 82.03125 80.46875 
Q 85.15625 76.5625 89.0625 71.484375 
Q 85.546875 69.921875 82.8125 67.578125 
z
" id="SimHei-57df"/>
     <path d="M 82.8125 71.484375 
Q 60.9375 69.53125 53.515625 68.75 
L 53.515625 60.546875 
L 80.46875 60.546875 
Q 85.9375 60.546875 93.75 60.9375 
L 93.75 53.90625 
Q 85.9375 54.296875 80.46875 54.296875 
L 53.515625 54.296875 
L 53.515625 47.65625 
L 80.46875 47.65625 
Q 80.078125 41.796875 80.078125 33.203125 
Q 80.078125 24.609375 80.46875 18.359375 
L 53.515625 18.359375 
L 53.515625 11.71875 
L 71.09375 11.71875 
Q 78.125 11.71875 85.9375 12.109375 
L 85.9375 5.859375 
Q 78.515625 6.25 71.484375 6.25 
L 53.515625 6.25 
L 53.515625 -0.78125 
L 78.90625 -0.78125 
Q 85.546875 -0.78125 93.359375 -0.390625 
L 93.359375 -7.03125 
Q 85.546875 -6.640625 79.296875 -6.640625 
L 23.046875 -6.640625 
Q 15.234375 -6.640625 7.03125 -7.03125 
L 7.03125 -0.390625 
Q 15.234375 -0.78125 22.65625 -0.78125 
L 45.703125 -0.78125 
L 45.703125 6.25 
L 32.03125 6.25 
Q 22.65625 6.25 14.84375 5.859375 
L 14.84375 12.109375 
Q 25 11.71875 32.421875 11.71875 
L 45.703125 11.71875 
L 45.703125 18.359375 
L 19.53125 18.359375 
Q 19.921875 28.125 19.921875 33.203125 
Q 19.921875 38.28125 19.53125 47.65625 
L 45.703125 47.65625 
L 45.703125 54.296875 
L 19.140625 54.296875 
Q 13.671875 54.296875 6.25 53.90625 
L 6.25 60.9375 
Q 13.671875 60.546875 19.140625 60.546875 
L 45.703125 60.546875 
L 45.703125 68.359375 
Q 37.890625 67.96875 16.796875 66.40625 
Q 15.625 69.921875 13.671875 73.046875 
Q 35.546875 73.4375 52.53125 75.1875 
Q 69.53125 76.953125 76.953125 79.296875 
Q 78.515625 75.390625 82.8125 71.484375 
z
M 72.65625 35.9375 
L 72.65625 41.40625 
L 53.515625 41.40625 
L 53.515625 35.9375 
z
M 45.703125 35.9375 
L 45.703125 41.40625 
L 27.34375 41.40625 
L 27.34375 35.9375 
z
M 72.265625 24.609375 
L 72.265625 29.6875 
L 53.515625 29.6875 
L 53.515625 24.609375 
z
M 45.703125 24.609375 
L 45.703125 29.6875 
L 27.34375 29.6875 
L 27.34375 24.609375 
z
" id="SimHei-91cd"/>
     <path d="M 35.15625 25.390625 
Q 32.03125 32.8125 28.515625 38.671875 
L 28.515625 8.984375 
Q 28.515625 0.78125 28.90625 -7.8125 
L 20.703125 -7.8125 
Q 21.09375 1.171875 21.09375 8.984375 
L 21.09375 37.109375 
Q 16.796875 27.34375 8.203125 15.625 
Q 5.859375 18.75 2.734375 21.875 
Q 9.765625 29.6875 14.25 39.25 
Q 18.75 48.828125 19.53125 54.6875 
Q 13.28125 54.6875 7.421875 54.296875 
L 7.421875 61.328125 
Q 13.28125 60.9375 21.09375 60.9375 
L 21.09375 69.921875 
Q 21.09375 75.78125 20.703125 80.46875 
L 28.90625 80.46875 
Q 28.515625 76.5625 28.515625 69.921875 
L 28.515625 60.9375 
Q 33.59375 60.9375 39.453125 61.328125 
L 39.453125 54.296875 
Q 33.59375 54.6875 28.515625 54.6875 
L 28.515625 39.453125 
Q 31.640625 41.015625 34.765625 42.96875 
Q 38.671875 35.9375 42.1875 29.296875 
Q 38.671875 27.734375 35.15625 25.390625 
z
M 62.5 78.90625 
Q 60.546875 76.171875 58.78125 72.265625 
Q 57.03125 68.359375 55.46875 64.453125 
L 94.140625 64.453125 
Q 93.75 58.59375 93.359375 50 
Q 93.359375 26.171875 91.796875 5.46875 
Q 90.234375 -3.125 85.34375 -5.265625 
Q 80.46875 -7.421875 70.3125 -8.203125 
Q 69.53125 -3.90625 67.1875 0.78125 
Q 75.390625 0.390625 79.6875 1.171875 
Q 83.984375 1.953125 84.765625 11.328125 
Q 86.328125 33.203125 85.9375 57.8125 
L 52.734375 57.8125 
Q 49.21875 50 44.921875 42.96875 
Q 41.796875 45.3125 38.28125 46.484375 
Q 44.140625 55.078125 48.046875 64.84375 
Q 51.953125 74.609375 53.515625 82.03125 
Q 58.203125 79.6875 62.5 78.90625 
z
M 69.53125 16.40625 
Q 65.234375 16.015625 57.21875 14.84375 
Q 49.21875 13.671875 43.75 11.328125 
Q 42.1875 16.015625 40.234375 20.3125 
Q 42.578125 21.09375 45.703125 26.171875 
Q 48.828125 31.25 50.78125 36.515625 
Q 52.734375 41.796875 54.6875 49.21875 
Q 59.375 47.265625 63.671875 44.921875 
Q 61.328125 42.578125 56.828125 33.78125 
Q 52.34375 25 49.609375 21.09375 
Q 58.203125 21.484375 68.359375 22.265625 
Q 66.796875 27.734375 64.453125 33.984375 
L 72.265625 36.328125 
Q 74.609375 29.6875 76.5625 23.828125 
Q 78.515625 17.96875 79.296875 12.5 
Q 75 11.71875 71.09375 10.15625 
Q 70.3125 13.671875 69.53125 16.40625 
z
" id="SimHei-6784"/>
     <path d="M 3.90625 -3.125 
Q 16.015625 7.421875 19.921875 10.15625 
L 19.921875 38.671875 
Q 10.546875 38.671875 6.25 38.28125 
L 6.25 46.09375 
Q 9.765625 45.3125 20.703125 45.3125 
L 28.125 45.3125 
Q 27.734375 39.453125 27.734375 33.59375 
L 27.734375 9.375 
Q 39.0625 -0.390625 61.125 -0.578125 
Q 83.203125 -0.78125 96.09375 1.171875 
Q 93.75 -2.734375 92.578125 -8.59375 
L 69.140625 -8.59375 
Q 59.375 -8.59375 51.171875 -8 
Q 42.96875 -7.421875 37.296875 -4.6875 
Q 31.640625 -1.953125 27.34375 1.171875 
Q 23.046875 4.296875 19.328125 0.578125 
Q 15.625 -3.125 10.9375 -9.765625 
Q 8.59375 -5.859375 3.90625 -3.125 
z
M 56.640625 13.28125 
Q 65.625 12.890625 67.96875 13.671875 
Q 70.3125 14.453125 70.3125 20.3125 
L 70.3125 55.859375 
L 44.921875 55.859375 
Q 40.625 55.859375 35.546875 55.46875 
L 35.546875 62.890625 
Q 40.625 62.5 48.046875 62.5 
L 70.3125 62.5 
Q 70.3125 72.65625 69.53125 80.078125 
L 78.515625 80.078125 
Q 78.125 75 78.125 62.5 
Q 86.328125 62.5 92.96875 62.890625 
L 92.96875 55.46875 
Q 86.71875 55.859375 78.125 55.859375 
L 78.125 17.1875 
Q 78.125 8.203125 72.84375 6.4375 
Q 67.578125 4.6875 59.765625 4.296875 
Q 58.984375 8.59375 56.640625 13.28125 
z
M 48.828125 25 
Q 45.3125 35.546875 40.234375 44.53125 
Q 43.75 46.09375 47.65625 48.828125 
Q 54.6875 34.765625 56.640625 29.296875 
Q 53.90625 27.734375 48.828125 25 
z
M 17.96875 77.734375 
Q 21.875 73.046875 30.078125 60.546875 
Q 26.171875 58.203125 22.65625 55.46875 
Q 14.84375 68.75 10.9375 72.265625 
Q 14.453125 74.21875 17.96875 77.734375 
z
" id="SimHei-8fc7"/>
     <path d="M 91.015625 77.734375 
Q 90.625 69.140625 90.625 62.109375 
Q 90.625 55.46875 91.015625 48.828125 
L 47.265625 48.828125 
Q 47.65625 56.25 47.65625 62.890625 
Q 47.65625 69.53125 47.265625 77.734375 
L 91.015625 77.734375 
z
M 6.25 75.390625 
Q 12.890625 76.171875 21.28125 77.921875 
Q 29.6875 79.6875 35.546875 82.421875 
Q 38.28125 77.34375 41.015625 73.828125 
Q 38.28125 74.21875 35.34375 73.625 
Q 32.421875 73.046875 28.90625 72.65625 
L 28.90625 53.515625 
Q 34.375 53.515625 40.625 53.90625 
L 40.625 46.484375 
Q 34.375 46.875 28.90625 46.875 
L 28.90625 12.5 
Q 28.90625 3.90625 29.296875 -10.546875 
L 21.484375 -10.546875 
Q 21.875 3.90625 21.875 12.109375 
L 21.875 30.078125 
Q 16.40625 19.140625 9.765625 9.375 
Q 7.03125 13.28125 3.515625 16.40625 
Q 8.984375 21.875 13.28125 28.90625 
Q 17.578125 35.9375 21.09375 46.875 
Q 11.328125 46.875 6.640625 46.484375 
L 6.640625 53.90625 
Q 13.28125 53.515625 16.40625 53.515625 
L 21.875 53.515625 
L 21.875 71.09375 
Q 16.796875 69.921875 8.984375 68.75 
Q 7.8125 72.265625 6.25 75.390625 
z
M 79.6875 39.0625 
Q 85.9375 39.0625 92.96875 39.453125 
L 92.96875 32.421875 
Q 85.9375 32.8125 79.6875 32.8125 
L 72.265625 32.8125 
L 72.265625 20.3125 
L 76.5625 20.3125 
Q 82.421875 20.3125 90.234375 20.703125 
L 90.234375 13.28125 
Q 82.421875 13.671875 77.734375 13.671875 
L 72.265625 13.671875 
L 72.265625 0 
L 81.640625 0 
Q 88.671875 0 96.484375 0.390625 
L 96.484375 -7.03125 
Q 90.234375 -6.640625 81.640625 -6.640625 
L 55.46875 -6.640625 
Q 46.875 -6.640625 40.625 -7.421875 
L 40.625 0.390625 
Q 46.875 0 55.46875 0 
L 64.84375 0 
L 64.84375 13.671875 
L 59.375 13.671875 
Q 53.125 13.671875 47.65625 12.890625 
L 47.65625 20.703125 
Q 53.125 20.3125 59.375 20.3125 
L 64.84375 20.3125 
L 64.84375 32.8125 
L 58.59375 32.8125 
Q 51.5625 32.8125 45.3125 32.421875 
L 45.3125 39.453125 
Q 51.5625 39.0625 58.59375 39.0625 
z
M 82.421875 55.859375 
L 82.421875 71.09375 
L 54.6875 71.09375 
L 54.6875 55.859375 
z
M 35.9375 37.5 
Q 39.84375 31.640625 44.140625 23.828125 
Q 41.796875 22.265625 37.890625 19.140625 
Q 33.984375 27.734375 30.078125 33.203125 
Q 32.421875 35.15625 35.9375 37.5 
z
" id="SimHei-7a0b"/>
    </defs>
    <g transform="translate(185.4 28.56)scale(0.12 -0.12)">
     <use xlink:href="#SimHei-9891"/>
     <use x="100" xlink:href="#SimHei-57df"/>
     <use x="200" xlink:href="#SimHei-91cd"/>
     <use x="300" xlink:href="#SimHei-6784"/>
     <use x="400" xlink:href="#SimHei-8fc7"/>
     <use x="500" xlink:href="#SimHei-7a0b"/>
    </g>
   </g>
   <g id="legend_1">
    <g id="patch_7">
     <path d="M 157.9 82.31 
L 284.9 82.31 
Q 286.9 82.31 286.9 80.31 
L 286.9 41.56 
Q 286.9 39.56 284.9 39.56 
L 157.9 39.56 
Q 155.9 39.56 155.9 41.56 
L 155.9 80.31 
Q 155.9 82.31 157.9 82.31 
z
" style="fill:#ffffff;opacity:0.8;stroke:#cccccc;stroke-linejoin:miter;"/>
    </g>
    <g id="line2d_28">
     <path d="M 159.9 47.06 
L 179.9 47.06 
" style="fill:none;stroke:#1f77b4;stroke-linecap:square;stroke-width:1.5;"/>
    </g>
    <g id="line2d_29"/>
    <g id="text_16">
     <!-- Raw Input Data -->
     <defs>
      <path d="M 46.875 1.953125 
L 37.5 1.953125 
L 23.4375 30.859375 
L 13.28125 30.859375 
L 13.28125 1.953125 
L 4.296875 1.953125 
L 4.296875 68.75 
L 23.828125 68.75 
Q 33.203125 68.75 39.0625 64.25 
Q 44.921875 59.765625 44.921875 49.609375 
Q 44.921875 41.796875 41.015625 37.5 
Q 37.109375 33.203125 32.03125 32.03125 
z
M 35.9375 49.609375 
Q 35.9375 55.078125 32.609375 58.203125 
Q 29.296875 61.328125 21.875 61.328125 
L 13.28125 61.328125 
L 13.28125 38.28125 
L 24.21875 38.28125 
Q 28.90625 38.28125 32.421875 40.8125 
Q 35.9375 43.359375 35.9375 49.609375 
z
" id="SimHei-52"/>
      <path d="M 44.921875 1.953125 
L 35.546875 1.953125 
Q 34.765625 2.734375 34.375 4.09375 
Q 33.984375 5.46875 33.984375 7.421875 
Q 31.25 4.296875 27.34375 2.734375 
Q 23.4375 1.171875 19.140625 1.171875 
Q 12.890625 1.171875 8.59375 4.296875 
Q 4.296875 7.421875 4.296875 13.28125 
Q 4.296875 19.140625 8.203125 22.65625 
Q 12.109375 26.171875 20.3125 27.34375 
Q 25.78125 28.125 29.875 29.296875 
Q 33.984375 30.46875 33.984375 32.421875 
Q 33.984375 34.765625 32.21875 37.109375 
Q 30.46875 39.453125 24.609375 39.453125 
Q 19.921875 39.453125 17.765625 37.6875 
Q 15.625 35.9375 14.84375 32.8125 
L 6.25 32.8125 
Q 7.03125 39.0625 11.90625 42.765625 
Q 16.796875 46.484375 24.609375 46.484375 
Q 33.203125 46.484375 37.5 42.578125 
Q 41.796875 38.671875 41.796875 31.640625 
L 41.796875 10.15625 
Q 41.796875 7.8125 42.578125 5.859375 
Q 43.359375 3.90625 44.921875 1.953125 
z
M 33.984375 16.40625 
L 33.984375 24.21875 
Q 31.640625 23.4375 29.484375 22.84375 
Q 27.34375 22.265625 22.265625 21.484375 
Q 16.40625 20.703125 14.640625 18.75 
Q 12.890625 16.796875 12.890625 14.0625 
Q 12.890625 11.71875 14.640625 9.953125 
Q 16.40625 8.203125 19.921875 8.203125 
Q 23.4375 8.203125 27.53125 10.15625 
Q 31.640625 12.109375 33.984375 16.40625 
z
" id="SimHei-61"/>
      <path d="M 48.046875 45.703125 
L 38.28125 1.171875 
L 30.859375 1.171875 
L 24.609375 35.15625 
L 23.828125 35.15625 
L 17.578125 1.171875 
L 10.15625 1.171875 
L 0.390625 45.703125 
L 8.59375 45.703125 
L 13.671875 16.40625 
L 14.453125 16.40625 
L 19.921875 45.703125 
L 28.515625 45.703125 
L 33.984375 16.40625 
L 34.765625 16.40625 
L 39.84375 45.703125 
z
" id="SimHei-77"/>
      <path id="SimHei-20"/>
      <path d="M 28.90625 1.953125 
L 19.921875 1.953125 
L 19.921875 68.75 
L 28.90625 68.75 
z
" id="SimHei-49"/>
      <path d="M 43.75 1.953125 
L 35.9375 1.953125 
L 35.9375 30.078125 
Q 35.9375 34.765625 33.59375 37.5 
Q 31.25 40.234375 27.34375 40.234375 
Q 22.265625 40.234375 17.765625 34.953125 
Q 13.28125 29.6875 13.28125 21.875 
L 13.28125 1.953125 
L 5.46875 1.953125 
L 5.46875 45.703125 
L 13.28125 45.703125 
L 13.28125 37.5 
Q 16.40625 41.796875 20.109375 44.140625 
Q 23.828125 46.484375 29.6875 46.484375 
Q 36.71875 46.484375 40.234375 42.578125 
Q 43.75 38.671875 43.75 32.8125 
z
" id="SimHei-6e"/>
      <path d="M 44.140625 23.828125 
Q 44.140625 12.5 38.671875 6.640625 
Q 33.203125 0.78125 25.390625 0.78125 
Q 21.09375 0.78125 17.96875 2.53125 
Q 14.84375 4.296875 12.5 7.8125 
L 12.5 -12.5 
L 4.6875 -12.5 
L 4.6875 45.703125 
L 12.5 45.703125 
L 12.5 39.84375 
Q 14.84375 43.359375 17.96875 44.921875 
Q 21.09375 46.484375 25.390625 46.484375 
Q 33.203125 46.484375 38.671875 40.8125 
Q 44.140625 35.15625 44.140625 23.828125 
z
M 35.546875 23.828125 
Q 35.546875 31.25 32.609375 35.34375 
Q 29.6875 39.453125 23.828125 39.453125 
Q 19.140625 39.453125 15.8125 35.34375 
Q 12.5 31.25 12.5 23.828125 
Q 12.5 16.40625 15.8125 12.109375 
Q 19.140625 7.8125 23.828125 7.8125 
Q 29.6875 7.8125 32.609375 12.109375 
Q 35.546875 16.40625 35.546875 23.828125 
z
" id="SimHei-70"/>
      <path d="M 43.75 1.953125 
L 35.9375 1.953125 
L 35.9375 10.15625 
Q 32.8125 5.859375 29.09375 3.515625 
Q 25.390625 1.171875 19.53125 1.171875 
Q 12.5 1.171875 8.984375 5.078125 
Q 5.46875 8.984375 5.46875 14.84375 
L 5.46875 45.703125 
L 13.28125 45.703125 
L 13.28125 17.578125 
Q 13.28125 12.890625 15.625 10.15625 
Q 17.96875 7.421875 21.875 7.421875 
Q 26.953125 7.421875 31.4375 12.6875 
Q 35.9375 17.96875 35.9375 25.78125 
L 35.9375 45.703125 
L 43.75 45.703125 
z
" id="SimHei-75"/>
      <path d="M 42.96875 3.125 
Q 41.015625 2.34375 38.46875 1.75 
Q 35.9375 1.171875 31.640625 1.171875 
Q 24.609375 1.171875 20.3125 5.078125 
Q 16.015625 8.984375 16.015625 16.015625 
L 16.015625 39.453125 
L 2.734375 39.453125 
L 2.734375 45.703125 
L 16.015625 45.703125 
L 16.015625 60.9375 
L 23.828125 60.9375 
L 23.828125 45.703125 
L 39.84375 45.703125 
L 39.84375 39.453125 
L 23.828125 39.453125 
L 23.828125 15.625 
Q 23.828125 12.5 25.390625 10.34375 
Q 26.953125 8.203125 31.25 8.203125 
Q 35.546875 8.203125 38.28125 8.984375 
Q 41.015625 9.765625 42.96875 10.9375 
z
" id="SimHei-74"/>
      <path d="M 45.703125 35.15625 
Q 45.703125 17.1875 38.078125 9.5625 
Q 30.46875 1.953125 17.578125 1.953125 
L 4.296875 1.953125 
L 4.296875 68.75 
L 17.578125 68.75 
Q 32.03125 68.75 38.859375 60.9375 
Q 45.703125 53.125 45.703125 35.15625 
z
M 36.328125 35.15625 
Q 36.328125 49.609375 31.640625 55.46875 
Q 26.953125 61.328125 17.578125 61.328125 
L 13.28125 61.328125 
L 13.28125 9.375 
L 17.578125 9.375 
Q 26.953125 9.375 31.640625 15.03125 
Q 36.328125 20.703125 36.328125 35.15625 
z
" id="SimHei-44"/>
     </defs>
     <g transform="translate(187.9 50.56)scale(0.1 -0.1)">
      <use xlink:href="#SimHei-52"/>
      <use x="50" xlink:href="#SimHei-61"/>
      <use x="100" xlink:href="#SimHei-77"/>
      <use x="150" xlink:href="#SimHei-20"/>
      <use x="200" xlink:href="#SimHei-49"/>
      <use x="250" xlink:href="#SimHei-6e"/>
      <use x="300" xlink:href="#SimHei-70"/>
      <use x="350" xlink:href="#SimHei-75"/>
      <use x="400" xlink:href="#SimHei-74"/>
      <use x="450" xlink:href="#SimHei-20"/>
      <use x="500" xlink:href="#SimHei-44"/>
      <use x="550" xlink:href="#SimHei-61"/>
      <use x="600" xlink:href="#SimHei-74"/>
      <use x="650" xlink:href="#SimHei-61"/>
     </g>
    </g>
    <g id="line2d_30">
     <path d="M 159.9 60.31 
L 179.9 60.31 
" style="fill:none;stroke:#ff7f0e;stroke-linecap:square;stroke-width:1.5;"/>
    </g>
    <g id="line2d_31"/>
    <g id="text_17">
     <!-- Reconstructed Data -->
     <defs>
      <path d="M 44.53125 16.796875 
Q 43.75 9.765625 38.28125 5.46875 
Q 32.8125 1.171875 25.390625 1.171875 
Q 16.015625 1.171875 9.953125 7.21875 
Q 3.90625 13.28125 3.90625 23.828125 
Q 3.90625 34.375 9.953125 40.421875 
Q 16.015625 46.484375 25.390625 46.484375 
Q 33.59375 46.484375 38.859375 41.203125 
Q 44.140625 35.9375 44.140625 23.828125 
L 12.5 23.828125 
Q 12.5 15.234375 16.203125 11.71875 
Q 19.921875 8.203125 25.390625 8.203125 
Q 29.6875 8.203125 32.421875 10.34375 
Q 35.15625 12.5 35.9375 16.796875 
z
M 35.15625 30.078125 
Q 34.375 35.546875 31.640625 37.6875 
Q 28.90625 39.84375 24.609375 39.84375 
Q 20.703125 39.84375 17.578125 37.6875 
Q 14.453125 35.546875 12.890625 30.078125 
z
" id="SimHei-65"/>
      <path d="M 44.53125 19.53125 
Q 44.53125 11.328125 38.859375 6.25 
Q 33.203125 1.171875 24.609375 1.171875 
Q 16.015625 1.171875 9.765625 7.21875 
Q 3.515625 13.28125 3.515625 23.828125 
Q 3.515625 34.375 9.765625 40.421875 
Q 16.015625 46.484375 24.609375 46.484375 
Q 33.203125 46.484375 38.28125 41.984375 
Q 43.359375 37.5 43.359375 31.25 
L 34.765625 31.25 
Q 34.375 35.9375 31.4375 37.6875 
Q 28.515625 39.453125 24.609375 39.453125 
Q 19.921875 39.453125 16.015625 35.734375 
Q 12.109375 32.03125 12.109375 23.828125 
Q 12.109375 15.625 16.015625 11.90625 
Q 19.921875 8.203125 24.609375 8.203125 
Q 29.6875 8.203125 32.8125 10.9375 
Q 35.9375 13.671875 35.9375 19.53125 
z
" id="SimHei-63"/>
      <path d="M 45.703125 23.828125 
Q 45.703125 13.671875 39.453125 7.421875 
Q 33.203125 1.171875 24.609375 1.171875 
Q 16.015625 1.171875 9.765625 7.421875 
Q 3.515625 13.671875 3.515625 23.828125 
Q 3.515625 33.984375 9.765625 40.234375 
Q 16.015625 46.484375 24.609375 46.484375 
Q 33.203125 46.484375 39.453125 40.234375 
Q 45.703125 33.984375 45.703125 23.828125 
z
M 37.109375 23.828125 
Q 37.109375 31.640625 33.203125 35.546875 
Q 29.296875 39.453125 24.609375 39.453125 
Q 19.921875 39.453125 16.015625 35.546875 
Q 12.109375 31.640625 12.109375 23.828125 
Q 12.109375 16.015625 16.015625 12.109375 
Q 19.921875 8.203125 24.609375 8.203125 
Q 29.296875 8.203125 33.203125 12.109375 
Q 37.109375 16.015625 37.109375 23.828125 
z
" id="SimHei-6f"/>
      <path d="M 42.96875 14.0625 
Q 42.96875 7.8125 38.078125 4.484375 
Q 33.203125 1.171875 25.78125 1.171875 
Q 16.40625 1.171875 11.328125 4.875 
Q 6.25 8.59375 6.25 15.625 
L 14.0625 15.625 
Q 14.0625 10.9375 17.375 9.375 
Q 20.703125 7.8125 25.390625 7.8125 
Q 30.078125 7.8125 32.421875 9.5625 
Q 34.765625 11.328125 34.765625 14.0625 
Q 34.765625 16.015625 32.8125 17.96875 
Q 30.859375 19.921875 23.046875 21.09375 
Q 14.0625 22.265625 10.734375 25.578125 
Q 7.421875 28.90625 7.421875 34.375 
Q 7.421875 39.0625 11.90625 42.765625 
Q 16.40625 46.484375 25 46.484375 
Q 32.8125 46.484375 37.296875 42.96875 
Q 41.796875 39.453125 41.796875 33.59375 
L 33.984375 33.59375 
Q 33.984375 37.109375 31.4375 38.46875 
Q 28.90625 39.84375 25 39.84375 
Q 19.921875 39.84375 17.765625 38.078125 
Q 15.625 36.328125 15.625 33.984375 
Q 15.625 31.25 17.578125 29.6875 
Q 19.53125 28.125 25.78125 27.34375 
Q 35.9375 25.78125 39.453125 22.453125 
Q 42.96875 19.140625 42.96875 14.0625 
z
" id="SimHei-73"/>
      <path d="M 39.0625 37.890625 
Q 31.640625 39.0625 26.5625 35.734375 
Q 21.484375 32.421875 17.96875 24.21875 
L 17.96875 1.953125 
L 10.15625 1.953125 
L 10.15625 45.703125 
L 17.96875 45.703125 
L 17.96875 34.375 
Q 21.484375 40.625 26.75 43.546875 
Q 32.03125 46.484375 39.0625 46.484375 
z
" id="SimHei-72"/>
      <path d="M 42.96875 1.953125 
L 35.15625 1.953125 
L 35.15625 7.8125 
Q 32.8125 4.296875 29.6875 2.734375 
Q 26.5625 1.171875 22.265625 1.171875 
Q 14.453125 1.171875 8.984375 6.828125 
Q 3.515625 12.5 3.515625 23.828125 
Q 3.515625 35.15625 8.984375 41.015625 
Q 14.453125 46.875 22.265625 46.875 
Q 26.5625 46.875 29.6875 45.109375 
Q 32.8125 43.359375 35.15625 39.84375 
L 35.15625 68.75 
L 42.96875 68.75 
z
M 35.15625 23.828125 
Q 35.15625 31.25 31.828125 35.546875 
Q 28.515625 39.84375 23.828125 39.84375 
Q 17.96875 39.84375 15.03125 35.546875 
Q 12.109375 31.25 12.109375 23.828125 
Q 12.109375 16.40625 15.03125 12.296875 
Q 17.96875 8.203125 23.828125 8.203125 
Q 28.515625 8.203125 31.828125 12.296875 
Q 35.15625 16.40625 35.15625 23.828125 
z
" id="SimHei-64"/>
     </defs>
     <g transform="translate(187.9 63.81)scale(0.1 -0.1)">
      <use xlink:href="#SimHei-52"/>
      <use x="50" xlink:href="#SimHei-65"/>
      <use x="100" xlink:href="#SimHei-63"/>
      <use x="150" xlink:href="#SimHei-6f"/>
      <use x="200" xlink:href="#SimHei-6e"/>
      <use x="250" xlink:href="#SimHei-73"/>
      <use x="300" xlink:href="#SimHei-74"/>
      <use x="350" xlink:href="#SimHei-72"/>
      <use x="400" xlink:href="#SimHei-75"/>
      <use x="450" xlink:href="#SimHei-63"/>
      <use x="500" xlink:href="#SimHei-74"/>
      <use x="550" xlink:href="#SimHei-65"/>
      <use x="600" xlink:href="#SimHei-64"/>
      <use x="650" xlink:href="#SimHei-20"/>
      <use x="700" xlink:href="#SimHei-44"/>
      <use x="750" xlink:href="#SimHei-61"/>
      <use x="800" xlink:href="#SimHei-74"/>
      <use x="850" xlink:href="#SimHei-61"/>
     </g>
    </g>
    <g id="line2d_32">
     <path d="M 159.9 73.56 
L 179.9 73.56 
" style="fill:none;stroke:#2ca02c;stroke-linecap:square;stroke-width:1.5;"/>
    </g>
    <g id="line2d_33"/>
    <g id="text_18">
     <!-- Weight Coefficients -->
     <defs>
      <path d="M 48.046875 68.75 
L 39.453125 1.171875 
L 31.640625 1.171875 
L 24.609375 51.171875 
L 23.828125 51.171875 
L 16.796875 1.171875 
L 8.984375 1.171875 
L 0.390625 68.75 
L 8.984375 68.75 
L 13.28125 26.171875 
L 14.0625 26.171875 
L 19.921875 68.75 
L 28.515625 68.75 
L 34.375 26.171875 
L 35.15625 26.171875 
L 39.453125 68.75 
z
" id="SimHei-57"/>
      <path d="M 28.125 58.203125 
L 20.3125 58.203125 
L 20.3125 68.359375 
L 28.125 68.359375 
z
M 28.125 1.953125 
L 20.3125 1.953125 
L 20.3125 45.703125 
L 28.125 45.703125 
z
" id="SimHei-69"/>
      <path d="M 46.484375 39.0625 
Q 43.75 39.84375 41.203125 40.03125 
Q 38.671875 40.234375 35.9375 39.453125 
Q 37.109375 38.28125 37.890625 36.515625 
Q 38.671875 34.765625 38.671875 31.25 
Q 38.671875 24.609375 34.171875 20.3125 
Q 29.6875 16.015625 23.046875 16.015625 
Q 21.484375 16.015625 18.9375 16.59375 
Q 16.40625 17.1875 14.84375 17.96875 
Q 13.671875 17.1875 13.28125 16.40625 
Q 12.890625 15.625 12.890625 14.453125 
Q 12.890625 12.5 15.625 11.515625 
Q 18.359375 10.546875 25.390625 10.546875 
Q 36.71875 10.546875 40.8125 7.421875 
Q 44.921875 4.296875 44.921875 -0.390625 
Q 44.921875 -6.640625 38.859375 -9.5625 
Q 32.8125 -12.5 24.609375 -12.5 
Q 14.0625 -12.5 8.984375 -9.765625 
Q 3.90625 -7.03125 3.90625 -2.34375 
Q 3.90625 0 5.859375 2.34375 
Q 7.8125 4.6875 10.9375 6.25 
Q 8.59375 7.421875 7.21875 9.171875 
Q 5.859375 10.9375 5.859375 13.671875 
Q 5.859375 16.015625 7.609375 17.765625 
Q 9.375 19.53125 11.71875 20.703125 
Q 9.765625 22.65625 8.59375 25.390625 
Q 7.421875 28.125 7.421875 31.25 
Q 7.421875 37.890625 11.90625 42.1875 
Q 16.40625 46.484375 23.046875 46.484375 
Q 26.5625 46.484375 29.09375 45.5 
Q 31.640625 44.53125 33.59375 42.578125 
Q 36.71875 44.921875 39.84375 45.890625 
Q 42.96875 46.875 46.484375 46.484375 
z
M 30.859375 31.25 
Q 30.859375 35.15625 28.90625 37.5 
Q 26.953125 39.84375 23.046875 39.84375 
Q 19.140625 39.84375 17.1875 37.5 
Q 15.234375 35.15625 15.234375 31.25 
Q 15.234375 27.34375 17.1875 25 
Q 19.140625 22.65625 23.046875 22.65625 
Q 26.953125 22.65625 28.90625 25 
Q 30.859375 27.34375 30.859375 31.25 
z
M 37.5 -1.171875 
Q 37.5 0.390625 35.734375 1.953125 
Q 33.984375 3.515625 26.953125 3.515625 
Q 25.390625 3.515625 22.65625 3.703125 
Q 19.921875 3.90625 16.40625 4.296875 
Q 13.28125 3.125 12.109375 1.5625 
Q 10.9375 0 10.9375 -1.5625 
Q 10.9375 -3.90625 14.0625 -5.46875 
Q 17.1875 -7.03125 25 -7.03125 
Q 31.640625 -7.03125 34.5625 -5.265625 
Q 37.5 -3.515625 37.5 -1.171875 
z
" id="SimHei-67"/>
      <path d="M 43.75 1.953125 
L 35.9375 1.953125 
L 35.9375 30.078125 
Q 35.9375 34.765625 33.59375 37.5 
Q 31.25 40.234375 27.34375 40.234375 
Q 22.265625 40.234375 17.765625 34.953125 
Q 13.28125 29.6875 13.28125 21.875 
L 13.28125 1.953125 
L 5.46875 1.953125 
L 5.46875 68.75 
L 13.28125 68.75 
L 13.28125 37.5 
Q 16.40625 41.796875 20.109375 44.140625 
Q 23.828125 46.484375 29.6875 46.484375 
Q 36.71875 46.484375 40.234375 42.578125 
Q 43.75 38.671875 43.75 32.8125 
z
" id="SimHei-68"/>
      <path d="M 46.484375 28.515625 
Q 46.09375 13.671875 40.234375 7.421875 
Q 34.375 1.171875 26.171875 1.171875 
Q 16.796875 1.171875 10.15625 8.78125 
Q 3.515625 16.40625 3.515625 33.203125 
Q 3.515625 51.5625 9.953125 60.546875 
Q 16.40625 69.53125 26.5625 69.53125 
Q 35.15625 69.53125 40.8125 63.078125 
Q 46.484375 56.640625 46.09375 44.921875 
L 37.5 44.921875 
Q 37.5 53.515625 34.765625 57.8125 
Q 32.03125 62.109375 26.5625 62.109375 
Q 20.3125 62.109375 16.59375 55.65625 
Q 12.890625 49.21875 12.890625 33.984375 
Q 12.890625 19.921875 16.59375 14.25 
Q 20.3125 8.59375 26.171875 8.59375 
Q 30.46875 8.59375 33.984375 12.6875 
Q 37.5 16.796875 37.5 28.515625 
z
" id="SimHei-43"/>
      <path d="M 44.53125 59.765625 
Q 42.578125 60.9375 39.84375 61.71875 
Q 37.109375 62.5 32.8125 62.5 
Q 28.515625 62.5 26.953125 60.34375 
Q 25.390625 58.203125 25.390625 55.078125 
L 25.390625 45.703125 
L 41.40625 45.703125 
L 41.40625 39.453125 
L 25.390625 39.453125 
L 25.390625 1.953125 
L 17.578125 1.953125 
L 17.578125 39.453125 
L 4.296875 39.453125 
L 4.296875 45.703125 
L 17.578125 45.703125 
L 17.578125 54.6875 
Q 17.578125 61.71875 21.875 65.625 
Q 26.171875 69.53125 33.203125 69.53125 
Q 37.5 69.53125 40.03125 68.9375 
Q 42.578125 68.359375 44.53125 67.578125 
z
" id="SimHei-66"/>
     </defs>
     <g transform="translate(187.9 77.06)scale(0.1 -0.1)">
      <use xlink:href="#SimHei-57"/>
      <use x="50" xlink:href="#SimHei-65"/>
      <use x="100" xlink:href="#SimHei-69"/>
      <use x="150" xlink:href="#SimHei-67"/>
      <use x="200" xlink:href="#SimHei-68"/>
      <use x="250" xlink:href="#SimHei-74"/>
      <use x="300" xlink:href="#SimHei-20"/>
      <use x="350" xlink:href="#SimHei-43"/>
      <use x="400" xlink:href="#SimHei-6f"/>
      <use x="450" xlink:href="#SimHei-65"/>
      <use x="500" xlink:href="#SimHei-66"/>
      <use x="550" xlink:href="#SimHei-66"/>
      <use x="600" xlink:href="#SimHei-69"/>
      <use x="650" xlink:href="#SimHei-63"/>
      <use x="700" xlink:href="#SimHei-69"/>
      <use x="750" xlink:href="#SimHei-65"/>
      <use x="800" xlink:href="#SimHei-6e"/>
      <use x="850" xlink:href="#SimHei-74"/>
      <use x="900" xlink:href="#SimHei-73"/>
     </g>
    </g>
   </g>
  </g>
 </g>
 <defs>
  <clipPath id="p5ad80ebd8d">
   <rect height="98.836364" width="334.8" x="54" y="34.56"/>
  </clipPath>
 </defs>
</svg>
